<svg width="133" height="55" viewBox="0 0 133 55" fill="none" xmlns="http://www.w3.org/2000/svg">
<path d="M10.906 21.1044C10.8529 20.1709 10.5743 19.3867 10.0916 18.7898C9.58945 18.194 8.94279 17.8015 8.17215 17.6306C8.60841 17.4107 8.97749 17.0385 9.23938 16.4969C9.36226 16.2557 9.44625 16.0168 9.50968 15.7596C9.5731 15.5023 9.59211 15.15 9.5667 14.7027C9.54239 14.2749 9.40028 13.8342 9.18149 13.4174C8.53063 12.2642 7.23222 11.7331 5.30682 11.8425L1.72829 12.0458L2.47969 25.2708L6.52498 25.0409C7.86692 24.9647 8.92002 24.6122 9.70149 23.9434C10.0922 23.609 10.3997 23.1818 10.6238 22.6618C10.8295 22.1623 10.9369 21.6489 10.906 21.1044ZM8.21746 14.994C8.25834 15.7136 8.07424 16.2509 7.66627 16.6253C7.25829 16.9996 6.70423 17.2067 6.00408 17.2465L3.39798 17.3946L3.16372 13.2715L5.38085 13.1455C7.18956 13.0428 8.14232 13.6715 8.21746 14.994ZM9.52911 20.9095C9.57442 21.7068 9.33861 22.3641 8.82167 22.8813C8.32419 23.3973 7.65675 23.6694 6.83991 23.7158L3.76705 23.8904L3.47533 18.756L6.76213 18.5692C7.44282 18.5305 8.05899 18.7297 8.61062 19.1666C8.85616 19.3673 9.06501 19.6091 9.23717 19.8919C9.41044 20.1943 9.50702 20.5205 9.52911 20.9095ZM21.0724 19.7268C21.0061 18.5599 20.4818 17.5751 19.5375 16.7507C18.6148 15.9642 17.5403 15.596 16.3539 15.6634C15.1092 15.7341 14.0844 16.2411 13.2589 17.166C12.4335 18.0909 12.0653 19.1654 12.1349 20.3907C12.2056 21.6354 12.6931 22.6613 13.6169 23.4673C14.0486 23.8525 14.533 24.1372 15.0908 24.3396C15.6486 24.5421 16.2971 24.6223 17.0556 24.5792C17.8141 24.5361 18.5398 24.2607 19.2524 23.752C19.9649 23.2432 20.4719 22.551 20.795 21.7132L19.2391 21.8016C18.9511 22.2277 18.5993 22.5599 18.1652 22.8187C17.7312 23.0775 17.2699 23.2012 16.7837 23.2289C16.0447 23.2708 15.3702 23.075 14.7591 22.622C14.1491 22.1884 13.7454 21.6064 13.5867 20.874L21.1132 20.4464L21.0724 19.7268ZM19.6078 19.3613L13.5398 19.706C13.5977 19.3515 13.7151 19.0132 13.8919 18.6909C14.4568 17.6443 15.3032 17.0889 16.4312 17.0248C17.1508 16.9839 17.8059 17.1808 18.3964 17.6155C19.0075 18.0686 19.3918 18.6516 19.6078 19.3613ZM24.923 23.9956L24.6898 19.892L28.2876 23.8045L30.0963 23.7017L26.0919 19.5002L29.3756 15.1382L27.5669 15.2409L24.6556 19.2891L24.0942 9.40924L22.7328 9.48659L23.5616 24.073L24.923 23.9956ZM32.4741 12.0159C32.2902 11.8703 32.0708 11.7852 31.8374 11.7984C31.604 11.8117 31.3956 11.9211 31.2488 12.0855C31.0838 12.2705 31.0181 12.4889 31.0314 12.7222C31.0446 12.9556 31.1346 13.1651 31.3185 13.3108C31.484 13.477 31.7023 13.5426 31.9357 13.5294C32.1691 13.5161 32.3786 13.4262 32.5437 13.2412C32.6905 13.0767 32.7755 12.8573 32.7623 12.6239C32.749 12.3905 32.6396 12.1821 32.4741 12.0159ZM33.206 23.525L32.7199 14.9677L31.3585 15.045L31.8447 23.6024L33.206 23.525ZM37.3233 12.3648C37.31 12.1314 37.2006 11.923 37.0351 11.7568C36.8512 11.6111 36.6317 11.526 36.3984 11.5393C36.1455 11.5537 35.9371 11.6631 35.7904 11.8275C35.6253 12.0125 35.5596 12.2308 35.5729 12.4642C35.5873 12.717 35.6772 12.9266 35.8611 13.0722C36.0266 13.2384 36.245 13.304 36.4978 13.2897C36.7312 13.2764 36.9407 13.1865 37.1058 13.0015C37.2525 12.8371 37.3376 12.6176 37.3233 12.3648ZM37.8404 24.9007L37.2614 14.7096L35.9 14.787L36.4801 24.9975C36.5343 25.9504 36.2757 26.5505 35.7433 26.7953C35.5154 26.9058 35.2831 26.9385 35.0464 26.8935C34.8097 26.8484 34.5892 26.7438 34.4248 26.5971L34.4988 27.9001C34.7616 28.0608 35.0977 28.1393 35.5072 28.1355C35.8984 28.1523 36.2819 28.033 36.6403 27.8175C36.9988 27.602 37.2923 27.2731 37.5392 26.8104C37.786 26.3476 37.8868 25.7175 37.8404 24.9007ZM42.1303 23.018L41.8972 18.9143L45.4949 22.8268L47.3036 22.724L43.2992 18.5225L46.583 14.1605L44.7742 14.2633L41.8629 18.3114L41.3016 8.43158L39.9402 8.50893L40.7689 23.0953L42.1303 23.018ZM60.7606 17.667C60.8082 18.5033 60.5584 19.2589 60.0092 19.8949C59.4611 20.5504 58.7592 20.9025 57.9229 20.95C57.0672 20.9986 56.3299 20.7283 55.7111 20.1391C55.0934 19.5694 54.7791 18.8458 54.7316 18.0095C54.6852 17.1927 54.9155 16.4382 55.4636 15.7827C56.0117 15.1272 56.7136 14.7751 57.5693 14.7265C58.4056 14.679 59.1429 14.9493 59.7617 15.5385C60.3805 16.1277 60.7142 16.8501 60.7606 17.667ZM62.3651 21.8683L61.8789 13.311L60.5175 13.3883L60.6015 14.8664C60.5171 14.7541 60.4143 14.6624 60.331 14.5696C59.4633 13.7214 58.445 13.3109 57.278 13.3772C56.0917 13.4447 55.1263 13.9678 54.3603 14.9088C53.6332 15.8476 53.3028 16.9005 53.3702 18.0869C53.4387 19.2927 53.8863 20.3014 54.7139 21.1323C55.5827 22 56.6 22.391 57.7863 22.3236C58.9532 22.2573 59.9197 21.7536 60.6846 20.7931C60.758 20.7109 60.8497 20.6081 60.9209 20.487L61.0037 21.9456L62.3651 21.8683ZM66.6499 21.6249L65.8211 7.03847L64.4597 7.11582L65.2885 21.7022L66.6499 21.6249ZM70.9232 21.3821L70.0945 6.79568L68.7331 6.87302L69.5618 21.4594L70.9232 21.3821ZM81.9439 16.2683C81.8776 15.1014 81.3534 14.1166 80.409 13.2922C79.4863 12.5057 78.4118 12.1375 77.2254 12.2049C75.9807 12.2756 74.9559 12.7826 74.1305 13.7075C73.305 14.6324 72.9368 15.7069 73.0064 16.9322C73.0772 18.1769 73.5647 19.2028 74.4885 20.0088C74.9201 20.394 75.4046 20.6787 75.9624 20.8811C76.5202 21.0836 77.1686 21.1638 77.9271 21.1207C78.6856 21.0776 79.4114 20.8022 80.1239 20.2935C80.8364 19.7847 81.3434 19.0925 81.6665 18.2547L80.1107 18.3431C79.8227 18.7692 79.4708 19.1014 79.0368 19.3602C78.6027 19.619 78.1415 19.7427 77.6553 19.7704C76.9162 19.8123 76.2417 19.6165 75.6307 19.1635C75.0207 18.7299 74.6169 18.1479 74.4582 17.4155L81.9848 16.9879L81.9439 16.2683ZM80.4793 15.9028L74.4114 16.2475C74.4693 15.893 74.5866 15.5547 74.7634 15.2324C75.3283 14.1858 76.1748 13.6304 77.3028 13.5663C78.0224 13.5254 78.6774 13.7223 79.268 14.157C79.8791 14.6101 80.2634 15.1931 80.4793 15.9028ZM85.5899 19.3391C85.246 19.1245 84.971 18.7499 84.8029 18.1936L83.3637 18.2753C83.756 20.0286 84.9337 20.8397 86.9174 20.727C87.3842 20.7005 87.8099 20.6372 88.2117 20.4973C88.6134 20.3575 88.9547 20.182 89.2731 19.9493C89.909 19.4644 90.2009 18.7649 90.149 17.8508C90.096 16.9173 89.6305 16.2803 88.7116 15.9033C88.3321 15.7493 87.916 15.6363 87.4631 15.5645C87.0297 15.4916 86.6147 15.3981 86.2385 15.3024C85.8429 15.2078 85.5229 15.0699 85.2601 14.9092C84.9974 14.7485 84.8457 14.484 84.8236 14.095C84.8015 13.7061 84.9406 13.4055 85.2418 13.2128C85.5419 13.0006 85.9059 12.8824 86.3143 12.8592C86.7422 12.8349 87.1172 12.9111 87.4178 13.0501C87.7184 13.1891 87.9694 13.487 88.1321 13.9461L89.5907 13.8632C89.3671 13.0174 88.9633 12.4355 88.4 12.1358C87.8161 11.8178 87.1254 11.6814 86.2891 11.7289C85.4723 11.7754 84.766 12.0496 84.1874 12.5117C83.6293 12.9922 83.3546 13.6517 83.4032 14.5074C83.4264 14.9158 83.5641 15.2787 83.7957 15.5778C84.0479 15.8951 84.3929 16.1292 84.8318 16.2993C85.2307 16.4523 85.6469 16.5652 86.0814 16.6576C86.5148 16.7305 86.9298 16.824 87.3254 16.9186C88.2172 17.1606 88.6888 17.5631 88.7197 18.1076C88.7728 19.0411 88.1759 19.5238 86.9311 19.5945C86.406 19.6244 85.9532 19.5525 85.5899 19.3391ZM104.256 15.1567C104.305 16.0124 104.035 16.7497 103.466 17.3869C102.879 18.0446 102.176 18.3772 101.32 18.4258C100.464 18.4744 99.7088 18.2247 99.0705 17.6366C98.4139 17.069 98.0813 16.366 98.0327 15.5103C97.9841 14.6546 98.2349 13.9184 98.8219 13.2607C99.3906 12.6235 100.112 12.2703 100.968 12.2217C101.823 12.1731 102.561 12.4434 103.217 13.0109C103.856 13.599 104.208 14.301 104.256 15.1567ZM105.618 15.0793C105.548 13.8541 105.041 12.8293 104.116 12.0038C103.191 11.1784 102.116 10.7907 100.89 10.8603C99.6456 10.9311 98.6208 11.438 97.7954 12.3629C96.9699 13.2879 96.6017 14.3624 96.6713 15.5876C96.742 16.8323 97.2296 17.8583 98.1534 18.6643C99.0783 19.4897 100.172 19.8568 101.398 19.7872C102.603 19.7187 103.649 19.23 104.474 18.3051C105.301 17.3997 105.688 16.324 105.618 15.0793ZM109.831 24.0493L109.471 17.7285C109.536 17.8419 109.639 17.9336 109.721 18.007C110.59 18.8747 111.608 19.2656 112.794 19.1982C113.961 19.1319 114.927 18.6283 115.692 17.6678C116.42 16.7484 116.77 15.6944 116.702 14.4886C116.634 13.3022 116.167 12.2947 115.339 11.4443C114.471 10.596 113.452 10.1856 112.286 10.2519C111.099 10.3193 110.134 10.8424 109.368 11.7835C109.296 11.8851 109.204 11.9879 109.152 12.1079L109.068 10.6298L107.707 10.7072L108.469 24.1267L109.831 24.0493ZM115.34 14.566C115.388 15.4022 115.138 16.1579 114.589 16.7939C114.041 17.4494 113.339 17.8015 112.503 17.849C111.647 17.8976 110.91 17.6273 110.291 17.0381C109.673 16.4684 109.359 15.7448 109.311 14.9085C109.265 14.0917 109.495 13.3372 110.043 12.6817C110.591 12.0262 111.293 11.6741 112.149 11.6255C112.985 11.578 113.723 11.8482 114.341 12.4374C114.96 13.0267 115.294 13.7491 115.34 14.566Z" fill="black"/>
<path d="M5.14575 48.1564L4.39436 34.9314L3.03296 35.0088L3.78436 48.2337L5.14575 48.1564ZM13.9701 47.655L15.3315 47.5777L15.0276 42.2293C14.9712 41.2375 14.6536 40.4555 14.1137 39.8814C13.8238 39.5857 13.4993 39.37 13.1199 39.2159C12.7209 39.063 12.2292 38.9934 11.6263 39.0276C11.004 39.063 10.4888 39.2678 10.0397 39.6055C9.60897 39.9227 9.26154 40.3327 9.01689 40.8343L8.93291 39.3562L7.57152 39.4336L8.05771 47.9909L9.41911 47.9136L9.21579 44.3351C9.15391 43.246 9.29977 42.3792 9.67173 41.7142C9.88522 41.3508 10.1604 41.0425 10.5166 40.7881C10.8546 40.5543 11.3341 40.41 11.9176 40.3769C12.501 40.3437 12.9216 40.5344 13.1966 40.909C13.4715 41.2836 13.6352 41.7621 13.6662 42.3067L13.9701 47.655ZM19.1096 46.1533C18.7658 45.9387 18.4908 45.5641 18.3226 45.0078L16.8835 45.0896C17.2757 46.8428 18.4535 47.6539 20.4372 47.5412C20.904 47.5147 21.3296 47.4515 21.7314 47.3116C22.1332 47.1717 22.4745 46.9962 22.7929 46.7635C23.4288 46.2786 23.7207 45.5791 23.6688 44.6651C23.6157 43.7315 23.1503 43.0946 22.2314 42.7176C21.8519 42.5635 21.4357 42.4506 20.9829 42.3788C20.5495 42.3058 20.1345 42.2123 19.7583 42.1166C19.3627 42.0221 19.0427 41.8841 18.7799 41.7235C18.5171 41.5628 18.3655 41.2983 18.3434 40.9093C18.3213 40.5203 18.4603 40.2197 18.7616 40.027C19.0617 39.8149 19.4257 39.6966 19.8341 39.6734C20.262 39.6491 20.637 39.7254 20.9376 39.8644C21.2382 40.0034 21.4892 40.3013 21.6519 40.7603L23.1105 40.6775C22.8869 39.8317 22.4831 39.2498 21.9197 38.9501C21.3359 38.632 20.6452 38.4957 19.8089 38.5432C18.9921 38.5896 18.2858 38.8639 17.7072 39.326C17.1491 39.8065 16.8744 40.4659 16.923 41.3217C16.9462 41.7301 17.0839 42.093 17.3155 42.392C17.5677 42.7094 17.9127 42.9434 18.3516 43.1136C18.7505 43.2665 19.1667 43.3795 19.6012 43.4718C20.0346 43.5448 20.4496 43.6383 20.8452 43.7329C21.737 43.9749 22.2086 44.3773 22.2395 44.9219C22.2926 45.8554 21.6956 46.3381 20.4509 46.4088C19.9258 46.4386 19.473 46.3668 19.1096 46.1533ZM24.2938 39.7517L26.4332 39.6302L26.8476 46.9234L28.209 46.846L27.7946 39.5528L29.9145 39.4324L29.8426 38.1682L27.7228 38.2887L27.5338 34.963L26.1724 35.0403L26.3614 38.366L24.222 38.4876L24.2938 39.7517ZM38.7423 41.9551C38.7898 42.7914 38.5401 43.547 37.9909 44.183C37.4428 44.8385 36.7409 45.1906 35.9046 45.2381C35.0488 45.2867 34.3116 45.0164 33.6928 44.4272C33.075 43.8575 32.7608 43.1339 32.7133 42.2976C32.6669 41.4808 32.8971 40.7263 33.4452 40.0708C33.9933 39.4153 34.6952 39.0632 35.551 39.0146C36.3873 38.9671 37.1245 39.2374 37.7434 39.8266C38.3622 40.4158 38.6959 41.1382 38.7423 41.9551ZM40.3468 46.1564L39.8606 37.599L38.4992 37.6764L38.5832 39.1545C38.4988 39.0422 38.396 38.9505 38.3127 38.8577C37.445 38.0095 36.4266 37.599 35.2597 37.6653C34.0733 37.7327 33.108 38.2559 32.342 39.1969C31.6149 40.1357 31.2845 41.1886 31.3519 42.375C31.4204 43.5808 31.8679 44.5894 32.6956 45.4204C33.5643 46.2881 34.5816 46.6791 35.768 46.6117C36.9349 46.5454 37.9014 46.0417 38.6663 45.0812C38.7396 44.999 38.8314 44.8962 38.9025 44.7751L38.9854 46.2337L40.3468 46.1564ZM49.9507 41.3182C49.9982 42.1545 49.7485 42.9102 49.1993 43.5462C48.6512 44.2017 47.9493 44.5538 47.113 44.6013C46.2767 44.6488 45.5394 44.3785 44.9206 43.7893C44.3029 43.2196 43.9703 42.5165 43.9217 41.6608C43.8742 40.8245 44.125 40.0883 44.6731 39.4328C45.2212 38.7773 45.9231 38.4253 46.7594 38.3778C47.5957 38.3302 48.333 38.6005 48.9518 39.1897C49.5706 39.7789 49.9043 40.5014 49.9507 41.3182ZM44.1922 47.1086L42.7919 47.1881C42.9994 48.0934 43.4531 48.8676 44.192 49.5085C45.0974 50.3351 46.1719 50.7033 47.3972 50.6336C48.603 50.5651 49.6289 50.0776 50.4544 49.1527C51.2615 48.2483 51.6491 47.1727 51.5795 45.9474L51.069 36.9622L49.7076 37.0396L49.7894 38.4788C49.7072 38.4054 49.6239 38.3126 49.5405 38.2197C48.634 37.3737 47.6156 36.9633 46.4876 37.0274C45.2818 37.0959 44.3164 37.619 43.5504 38.5601C42.8233 39.4989 42.4929 40.5518 42.5603 41.7381C42.6288 42.944 43.0763 43.9526 43.904 44.7836C44.7728 45.6513 45.7901 46.0422 46.9959 45.9737C48.1628 45.9074 49.1292 45.4038 49.8941 44.4433C49.9675 44.3611 50.0398 44.2594 50.1132 44.1772L50.2181 46.0248C50.2667 46.8805 49.9965 47.6178 49.4278 48.255C48.8592 48.8921 48.1561 49.2247 47.3199 49.2722C46.4641 49.3209 45.7279 49.07 45.0908 48.5014C44.6386 48.0978 44.3398 47.6465 44.1922 47.1086ZM58.4856 38.3164L58.385 36.5466C58.1061 36.4453 57.811 36.4036 57.5193 36.4201C56.5469 36.4754 55.8777 37.0597 55.49 38.1354L55.4516 38.4888L55.351 36.7189L53.9896 36.7963L54.4758 45.3536L55.8372 45.2763L55.5941 40.9976C55.5543 40.2975 55.6746 39.6663 55.9732 39.0835C56.1122 38.7829 56.3117 38.5179 56.5535 38.3091C56.7953 38.1002 57.0998 37.9659 57.4499 37.946C57.8 37.9261 58.1395 38.0629 58.4856 38.3164ZM67.0794 40.3451C67.1269 41.1813 66.8772 41.937 66.328 42.573C65.7799 43.2285 65.078 43.5806 64.2417 43.6281C63.3859 43.6767 62.6487 43.4064 62.0298 42.8172C61.4121 42.2475 61.0979 41.5239 61.0503 40.6876C61.0039 39.8708 61.2342 39.1163 61.7823 38.4608C62.3304 37.8053 63.0323 37.4532 63.8881 37.4046C64.7244 37.3571 65.4616 37.6273 66.0804 38.2166C66.6993 38.8058 67.033 39.5282 67.0794 40.3451ZM68.6839 44.5464L68.1977 35.989L66.8363 36.0664L66.9203 37.5445C66.8358 37.4322 66.7331 37.3405 66.6498 37.2477C65.7821 36.3994 64.7637 35.989 63.5968 36.0553C62.4104 36.1227 61.4451 36.6459 60.6791 37.5869C59.952 38.5257 59.6215 39.5786 59.689 40.765C59.7575 41.9708 60.205 42.9794 61.0327 43.8104C61.9014 44.6781 62.9187 45.0691 64.1051 45.0016C65.272 44.9353 66.2384 44.4317 67.0034 43.4712C67.0767 43.389 67.1684 43.2862 67.2396 43.1651L67.3225 44.6237L68.6839 44.5464ZM82.4573 43.7248L83.8187 43.6475L83.5148 38.2991C83.4607 37.3461 83.1625 36.5631 82.6604 35.9673C82.4093 35.6694 82.0849 35.4537 81.7238 35.2791C81.3432 35.1056 80.8515 35.036 80.268 35.0691C79.6651 35.1034 79.15 35.3082 78.7203 35.6448C78.3296 35.9792 78.0199 36.3675 77.7742 36.8497C77.6648 36.6413 77.537 36.4535 77.3899 36.2667C77.1388 35.9688 76.8144 35.7531 76.4532 35.5785C76.0727 35.405 75.5809 35.3354 74.9975 35.3686C74.3946 35.4028 73.8794 35.6077 73.4498 35.9443C73.0774 36.2581 72.7861 36.6259 72.5587 37.0875L72.4802 35.7067L71.1188 35.784L71.605 44.3414L72.9664 44.264L72.7178 39.8881C72.7375 39.2041 72.8782 38.5913 73.1423 38.0885C73.3169 37.7274 73.591 37.3996 73.9278 37.1463C74.2646 36.8931 74.6275 36.7554 75.0359 36.7322C75.4249 36.7101 75.7405 36.7702 75.9416 36.8758C76.5061 37.195 76.8331 37.8007 76.8829 38.6759L77.1867 44.0243L78.5481 43.9469L78.2443 38.5986C78.2387 38.5013 78.2127 38.3857 78.2071 38.2885C78.2555 38.1101 78.3245 37.9501 78.4129 37.789C78.5875 37.4279 78.8615 37.1002 79.1983 36.8469C79.5352 36.5936 79.8981 36.4559 80.3065 36.4327C80.6954 36.4106 81.011 36.4707 81.2122 36.5764C81.7766 36.8955 82.1037 37.5013 82.1534 38.3765L82.4573 43.7248Z" fill="#71BCBF"/>
<path d="M3.77329 54.0879C8.21014 53.6437 12.6515 53.2759 17.085 52.7953C23.3248 52.1188 34.262 51.1345 40.5195 50.6536M84.4565 48.2965C75.7374 48.5978 67.0164 48.8677 58.3096 49.3804C56.8061 49.4689 55.9844 49.4903 54.4821 49.5978" stroke="#71BCBF" stroke-width="1.5" stroke-linecap="round"/>
</svg>
