<svg width="368" height="237" viewBox="0 0 368 237" fill="none" xmlns="http://www.w3.org/2000/svg">
<path d="M148.581 14.4218V14.1911C148.35 13.0375 147.658 12.8068 146.505 12.576C145.582 12.3453 146.043 13.7296 145.12 13.7296C144.197 13.9603 141.66 13.4989 140.737 13.4989C134.969 13.0375 129.201 13.2682 123.433 13.7296C122.049 13.7296 119.742 14.1911 118.588 13.9603C116.05 13.4989 116.05 12.576 114.204 10.961C111.436 8.42314 106.821 6.11599 102.899 6.57743C101.054 6.80814 99.9 7.03885 98.7464 8.42315C98.0542 9.34601 98.7464 10.0382 98.7464 10.0382C98.285 11.1917 97.3621 12.8068 96.4392 13.7296C94.5935 16.0368 94.8242 16.0368 91.5942 16.9596C88.3642 17.8825 86.057 18.5746 82.827 18.8054C78.4434 19.0361 74.2905 20.1897 69.9069 21.1125C66.9076 21.574 62.7547 21.574 59.9861 22.9582C58.3711 23.6504 57.679 24.1118 56.9868 25.7268C54.2182 32.6483 63.6776 35.6476 68.7533 35.4169C72.4448 35.1862 78.2127 34.7247 81.4427 33.3405C83.7499 32.4176 85.1342 31.4947 87.4413 31.0333C81.212 43.9534 75.6748 57.1042 69.6762 70.255C63.9083 83.1751 57.4483 96.0952 52.6032 109.477C50.5268 115.245 49.1425 121.243 46.6046 127.011C43.836 132.779 41.2982 138.547 39.2217 144.545C35.761 154.236 29.9931 165.31 34.6074 175.461C27.4552 177.769 19.8416 178.23 12.228 179.614C9.45937 180.306 5.5372 180.076 2.99933 181.46C-1.8457 183.998 -0.23069 189.766 3.92219 192.304C9.45937 195.534 19.6109 193.457 25.3788 191.611C27.4552 190.919 29.0702 189.766 31.3774 189.304C35.0688 188.843 38.7603 187.92 42.4517 187.459C49.1425 186.536 54.2182 184.921 60.6783 183.536L72.6755 180.999C74.5212 180.537 75.9055 179.384 77.0591 178.691C78.2127 178.23 79.3663 178.23 81.212 177.999C83.7499 177.999 91.8249 177.076 91.8249 173.385C91.8249 172.001 91.1328 171.309 89.9792 171.078C89.0563 170.847 89.287 172.231 88.3642 172.231C87.2106 172.462 85.1341 172.001 83.9806 172.001C73.1369 171.309 62.0626 172.231 51.2189 173.385C54.449 162.311 58.1404 151.236 62.524 140.623C65.2926 133.471 66.6769 126.319 69.6762 119.397C73.3676 110.4 77.0591 101.402 81.4427 92.6344C85.3649 84.7901 87.4413 76.715 91.3635 69.1014C95.5164 60.5649 99.4385 52.2592 103.822 43.9534C106.129 39.3391 109.59 34.0326 110.974 28.9569C111.205 27.5726 109.59 27.1111 111.205 25.7268C111.897 25.2654 114.896 25.4961 115.819 25.2654C119.972 24.5733 124.125 23.6504 128.278 22.7275C132.662 21.8047 133.584 19.9589 137.276 19.7282C139.814 19.4975 149.273 18.8054 148.581 14.4218ZM89.9792 57.7963C89.0563 59.6421 88.1335 61.2571 87.4413 63.1028C88.1335 60.1035 87.9027 57.1042 89.0563 54.1049C89.9792 51.567 92.9785 49.0291 94.5935 46.4913C93.2092 50.4134 92.0556 54.1049 89.9792 57.7963ZM80.5198 70.7164L77.2898 75.7922C78.4434 73.0236 79.1355 70.255 80.5198 67.4864C80.9813 66.5635 81.9041 65.41 82.827 64.2564C81.9041 66.3328 81.6734 68.64 80.5198 70.7164Z" fill="#F2F2F2"/>
<path d="M198.933 120.09C197.779 114.552 194.549 118.244 193.165 120.32C189.935 124.242 184.859 127.934 180.937 131.625C175.631 136.24 170.324 141.085 164.787 145.468C162.018 147.775 158.558 151.006 155.097 152.159C154.635 152.39 153.02 152.621 153.02 152.851L152.79 152.621C152.79 152.621 152.559 148.929 152.79 148.698C153.02 145.699 153.943 142.7 154.866 139.931C155.097 139.47 157.635 131.625 157.173 131.625L156.02 133.01C157.404 130.241 159.25 127.472 160.865 124.473C157.173 127.934 154.635 131.856 152.79 136.701C151.867 139.008 149.329 143.161 148.868 146.622C149.329 141.546 152.79 134.855 154.405 131.856C156.712 127.011 159.25 121.474 162.249 116.86C167.786 108.554 179.783 100.94 176.092 89.4044C172.862 78.5608 164.326 78.33 157.635 84.5594C154.405 87.5587 126.95 122.627 127.642 123.089C127.642 123.089 129.949 120.32 132.948 116.398L119.336 136.24C119.105 136.24 121.643 132.318 121.412 132.087C121.182 131.856 119.567 133.471 119.336 134.394C119.797 129.549 121.412 124.704 121.874 119.859C122.105 118.013 121.874 116.629 122.335 114.783C123.258 111.784 124.181 108.554 125.565 106.016C126.488 104.17 128.334 102.555 128.795 100.709C129.718 97.7102 129.487 96.5566 131.564 94.0187C133.41 91.7115 136.178 89.4044 137.793 87.328C141.715 81.5601 135.025 77.6379 131.333 76.9457C128.334 76.4843 125.335 76.2536 122.566 77.8686C119.567 79.7143 120.259 81.3293 119.567 83.8672C118.875 87.0972 116.567 90.7887 115.414 93.788C113.568 98.633 111.953 103.478 110.338 108.323C108.492 113.168 106.647 117.782 105.262 122.627C104.109 126.55 104.339 130.241 103.878 133.933C103.417 138.085 102.724 140.854 104.801 144.545C107.108 148.468 113.337 154.466 117.49 149.391L118.413 151.236C122.335 142.7 128.334 135.086 133.179 126.78C135.255 123.089 138.947 120.551 141.946 116.629C146.099 111.092 149.79 105.555 154.405 100.248C153.713 101.402 150.713 106.708 150.944 106.939C151.405 106.708 151.636 106.247 152.098 105.785L148.868 112.245C148.637 112.015 149.79 110.4 149.329 110.4C147.714 109.938 142.869 122.858 142.408 124.012C140.793 129.088 140.562 133.702 140.1 139.008C139.87 141.546 139.408 144.084 139.408 146.622C139.408 149.16 139.639 151.698 140.793 154.236C141.485 155.62 142.408 157.466 143.561 158.619C143.792 158.619 146.33 160.926 145.176 159.081L146.56 160.465L145.868 160.003C145.638 161.157 154.174 165.771 155.558 166.233C162.018 168.309 168.94 160.926 173.093 156.543C178.63 150.544 183.244 143.623 188.32 137.163C191.089 133.471 199.856 125.627 198.933 120.09Z" fill="#F2F2F2"/>
<path d="M277.335 118.244V118.013C275.489 112.245 265.799 127.242 264.645 128.626C257.032 137.393 248.265 147.314 237.19 151.698C234.422 153.082 228.884 154.928 227.5 151.698C226.577 149.621 227.5 144.776 227.269 142.469C226.808 139.47 226.347 136.24 224.962 133.471C221.04 127.011 216.657 131.395 215.272 136.701C214.119 142.008 214.119 148.006 215.272 153.082C215.734 155.851 218.041 158.619 218.502 161.388C218.964 163.695 217.81 167.156 217.349 169.463C215.272 179.845 212.042 189.766 207.889 199.456C205.121 206.377 190.586 238.447 181.818 222.066L181.588 221.835L182.511 222.527C180.434 213.299 183.664 201.994 185.741 192.996C188.971 179.845 192.893 167.156 197.276 154.466C198.199 151.236 199.353 148.006 200.506 144.545C201.891 141.085 202.352 140.162 204.659 137.624C207.659 134.625 210.427 131.395 213.196 128.395C221.963 118.244 230.5 108.092 238.575 97.7102C251.956 80.4065 264.184 61.0264 272.72 40.9541C277.104 30.3411 283.795 -1.26691 262.8 1.04026C252.187 2.19383 243.189 17.4211 237.652 25.2654C230.038 36.3398 223.347 48.337 217.349 60.1035C206.274 81.3293 195.661 102.786 189.201 125.627C182.28 149.852 172.128 173.385 170.744 199.225C170.052 209.838 170.052 225.527 179.511 232.679C190.355 240.985 201.66 234.294 208.12 224.373C215.503 213.068 218.502 198.072 222.194 185.151C223.117 181.921 223.809 178.691 224.501 175.461C224.732 173.616 224.962 166.002 226.347 164.848C227.5 163.695 232.576 163.926 233.96 163.464C245.727 160.234 258.416 150.775 264.645 140.162C268.337 134.394 279.411 126.319 277.335 118.244ZM214.811 107.4C214.811 107.17 215.042 106.939 215.042 106.708V106.939C216.426 103.939 216.657 103.017 216.426 103.247C224.501 84.0979 232.807 64.9485 242.497 46.722C247.342 37.7241 251.956 28.4954 258.185 20.4204C259.8 18.3439 262.569 13.7296 265.568 14.6525C274.335 17.1904 252.187 61.2571 248.957 66.5635C237.882 85.2515 224.501 102.786 209.966 119.167L214.811 107.4ZM184.356 183.998C185.279 180.768 186.202 177.538 187.356 174.539C185.741 179.614 184.356 185.151 183.433 190.458C182.511 194.842 179.05 205.454 179.05 213.529C177.896 203.609 181.357 192.765 184.356 183.998ZM215.734 105.093L216.426 103.247C216.426 103.478 215.964 104.401 215.734 105.093Z" fill="#F2F2F2"/>
<path d="M366.811 117.552C366.811 117.552 367.042 117.782 366.811 117.321C365.658 115.706 364.043 116.86 362.427 117.321C355.737 118.705 348.815 120.32 341.894 121.474C344.432 113.168 346.97 104.401 347.892 95.8644C348.354 92.6344 348.585 89.1737 347.892 85.9437C347.431 83.8672 346.739 81.7908 345.585 79.9451C345.585 79.9451 342.817 76.4843 343.509 78.33L343.278 78.0993L342.355 76.2536L343.278 77.1765C343.509 75.7922 339.587 73.2543 339.587 73.2543C333.819 67.4864 325.974 63.1028 318.13 67.4864C313.285 70.255 309.363 74.8693 306.133 79.4836C304.979 81.0986 303.826 82.9444 302.903 84.7901C301.98 86.6358 300.596 92.6344 299.211 93.5573C298.058 94.4801 294.597 94.7109 292.982 95.6337C290.675 96.5566 288.598 97.7102 286.753 99.0945C282.369 101.863 278.908 105.785 275.678 109.707C270.141 117.09 267.373 125.396 263.45 132.779C256.068 146.853 264.143 165.31 277.755 172.001C282.138 174.077 287.214 175 291.828 174.539C296.673 173.846 301.288 171.309 304.979 168.54C308.44 166.002 316.054 161.388 317.438 157.466C317.438 157.235 316.976 157.466 316.284 158.158L322.975 150.313C323.206 150.544 321.36 152.851 321.36 152.851C322.975 153.543 331.281 141.315 332.204 140.393C333.819 137.624 335.434 134.625 337.279 131.856C338.894 129.78 338.433 130.01 340.74 129.088C340.509 129.318 343.509 128.395 343.97 128.395C346.508 127.934 373.502 126.088 366.811 117.552ZM286.983 164.156H286.753C267.603 166.925 289.752 126.319 290.213 124.012L288.829 126.088C292.29 119.167 295.52 113.63 297.135 111.784C299.673 123.32 312.131 127.703 322.283 129.088C315.592 142.469 303.134 161.157 286.983 164.156ZM332.434 100.248C330.819 106.708 329.435 115.245 325.974 121.012C324.821 123.32 325.513 122.627 323.206 123.089C321.822 123.55 318.822 123.089 317.438 122.858C314.9 122.627 311.901 122.166 310.055 120.551C306.825 117.782 307.286 113.399 307.748 109.477C308.209 105.554 309.363 101.863 310.747 98.1716C311.439 96.7873 315.823 89.4044 315.131 88.0201C314.9 87.328 312.362 91.4808 312.131 91.7115C313.516 89.1737 314.9 87.7894 316.054 86.1744C315.823 86.1744 316.054 85.9437 316.284 85.4822V85.7129L316.515 85.2515C316.515 85.2515 316.515 85.0208 316.746 85.0208C320.206 80.4065 328.743 70.0243 333.357 77.1765C336.818 83.1751 333.588 94.4802 332.434 100.248ZM316.515 85.2515L316.746 85.0208C316.746 85.2515 316.515 85.2515 316.515 85.2515Z" fill="#F2F2F2"/>
</svg>
