<svg width="245" height="107" viewBox="0 0 245 107" fill="none" xmlns="http://www.w3.org/2000/svg">
<path fill-rule="evenodd" clip-rule="evenodd" d="M133.622 21.4269C134.615 20.4013 135.111 19.1441 135.111 17.7214C135.111 16.3319 134.615 15.0747 133.622 14.016C132.63 12.9573 131.406 12.4279 129.983 12.4279C128.527 12.4279 127.303 12.9573 126.311 14.016C125.318 15.0747 124.855 16.3319 124.855 17.7214C124.855 19.1441 125.318 20.4013 126.311 21.4269C127.303 22.4856 128.527 23.0149 129.983 23.0149C131.406 23.0149 132.63 22.4856 133.622 21.4269ZM137.427 0.186707V25H135.111V22.5187C134.979 22.7172 134.813 22.8826 134.681 23.0149C133.291 24.5699 131.604 25.3309 129.619 25.3309C127.601 25.3309 125.913 24.5699 124.524 23.0149C123.201 21.5261 122.539 19.7727 122.539 17.7214C122.539 15.7033 123.201 13.9498 124.524 12.4279C125.913 10.9061 127.601 10.112 129.619 10.112C131.604 10.112 133.291 10.9061 134.681 12.4279C134.727 12.4854 134.777 12.5429 134.828 12.6017L134.828 12.6022C134.924 12.7126 135.025 12.8279 135.111 12.9573V0.186707H137.427ZM88.9877 16.7289C87.929 15.8687 85.9439 15.1078 83.0325 14.413C78.4669 13.3543 76.1509 11.3692 76.1509 8.49089C76.1509 6.37349 76.9119 4.81852 78.4007 3.75982C79.8564 2.70112 81.6099 2.17177 83.5949 2.17177C87.9621 2.17177 90.5757 3.82599 91.4028 7.06826H88.8884C88.4253 5.14937 86.6718 4.15683 83.5949 4.15683C81.4114 4.15683 79.8895 4.81852 79.0293 6.10882C78.6984 6.572 78.5661 7.2006 78.5661 7.92846C78.533 9.318 79.294 10.3767 80.8158 11.1376C81.5106 11.5016 82.9994 11.9978 85.3153 12.5934C87.5981 13.1889 89.2524 13.8506 90.278 14.5784C91.7337 15.571 92.4615 16.9936 92.4615 18.8463C92.4615 21.096 91.5352 22.8164 89.7486 23.9744C88.2598 24.9669 86.4071 25.4301 84.1905 25.4301C79.2278 25.4301 76.3495 23.5443 75.5554 19.7396H78.2683C78.6984 22.1217 80.6835 23.3127 84.1905 23.3127C86.7049 23.3127 88.4914 22.6179 89.484 21.2284C89.881 20.699 90.0795 19.9381 90.0795 19.0117C90.0795 18.0854 89.7155 17.3244 88.9877 16.7289ZM97.63 12.5934H93.9907V10.4429H97.63V4.78544H99.9459V10.4429H103.552V12.5934H99.9459V25H97.63V12.5934ZM116.756 22.5187V25H119.072V10.4429H116.756V16.5304C116.756 18.5816 116.359 20.1366 115.598 21.2946C114.87 22.4194 113.58 22.9819 111.793 22.9819C110.801 22.9819 110.073 22.651 109.643 21.9893C109.213 21.3276 109.014 20.5005 109.014 19.5411V10.4429H106.698V19.5411C106.698 21.2284 107.129 22.6179 108.055 23.7097C108.981 24.7684 110.238 25.2978 111.893 25.2978C114.043 25.2978 115.664 24.3714 116.756 22.5187ZM144.749 5.41404C144.451 5.14937 144.087 4.98395 143.69 4.98395C143.293 4.98395 142.929 5.14937 142.665 5.41404C142.367 5.7118 142.234 6.07573 142.234 6.47274C142.234 6.86976 142.367 7.23369 142.665 7.49836C142.929 7.79612 143.293 7.92846 143.69 7.92846C144.087 7.92846 144.451 7.79612 144.749 7.49836C145.014 7.23369 145.179 6.86976 145.179 6.47274C145.179 6.07573 145.014 5.7118 144.749 5.41404ZM144.881 10.4429H142.565V25H144.881V10.4429ZM160.316 21.3607C161.341 20.3351 161.871 19.111 161.871 17.6553C161.871 16.1996 161.341 14.9754 160.316 13.9167C159.257 12.8911 158.033 12.3618 156.577 12.3618C155.121 12.3618 153.864 12.8911 152.839 13.9167C151.78 14.9754 151.284 16.1996 151.284 17.6553C151.284 19.111 151.78 20.3351 152.839 21.3607C153.864 22.4194 155.121 22.9157 156.577 22.9157C158.033 22.9157 159.257 22.4194 160.316 21.3607ZM161.937 12.2956C163.426 13.7844 164.186 15.571 164.186 17.6553C164.186 19.7727 163.426 21.5592 161.937 23.0149C160.448 24.5037 158.628 25.2316 156.577 25.2316C154.493 25.2316 152.673 24.5037 151.184 23.0149C149.695 21.5592 148.968 19.7727 148.968 17.6553C148.968 15.571 149.695 13.7844 151.184 12.2956C152.673 10.8068 154.46 10.0459 156.577 10.0459C158.661 10.0459 160.448 10.8068 161.937 12.2956ZM242.924 62.8777C243.153 62.6084 243.483 62.2195 243.736 62.2195C243.867 62.2195 244.585 62.5456 244.201 62.6131C244.438 62.5919 242.683 66.2315 242.421 66.5583C241.435 68.136 240.383 69.7137 239.332 71.2257C238.867 71.931 238.41 72.6637 237.948 73.4037L237.947 73.4046C236.516 75.6992 235.041 78.0643 233.152 79.9033C232.232 80.7579 231.574 81.2181 230.325 81.1523C228.813 81.0866 227.827 80.4292 226.841 79.4431C226.813 79.4152 226.753 79.3607 226.672 79.2866C226.18 78.8382 224.897 77.6686 225.066 77.2737L225.461 77.8654C225.263 77.5367 225.132 77.208 225 76.8136V77.0765C224.803 77.2737 224.277 74.9071 224.277 74.6442C224.212 73.6581 224.409 72.6721 224.606 71.6861L224.606 71.6859L224.606 71.685C225.066 70.1075 225.526 68.5301 225.921 66.9527C226.32 65.5284 227.015 64.1534 227.706 62.785L227.707 62.7846L227.707 62.7831C227.814 62.5732 227.92 62.3635 228.024 62.1537L228.066 62.0695L228.066 62.0693L228.066 62.0691C228.322 61.5521 229.423 59.3269 229.668 59.3269C229.668 59.3494 229.637 59.433 229.6 59.536C229.527 59.7351 229.427 60.0068 229.471 60.0501L230.457 57.8149L230.26 58.0122L232.166 53.4104C230.198 55.0061 228.574 57.0752 227.016 59.0605L227.016 59.0606L227.016 59.0612C226.648 59.5294 226.285 59.9929 225.921 60.4445C225.643 60.782 225.371 61.1435 225.096 61.509C224.46 62.3539 223.808 63.2205 223.028 63.8629C222.849 64.0125 222.724 64.0532 222.61 64.0903C222.473 64.1347 222.353 64.1739 222.174 64.3889C221.963 64.6527 221.794 65.0012 221.634 65.3324C221.594 65.4139 221.555 65.4943 221.516 65.5722C220.679 66.9554 219.721 68.258 218.765 69.558L218.764 69.5583C217.994 70.6061 217.224 71.6523 216.52 72.7377L215.337 74.8414C215.299 74.936 215.272 75.0197 215.247 75.0987C215.184 75.2945 215.13 75.4619 214.942 75.696C214.088 76.6163 212.576 76.2876 211.853 75.3673C211.261 74.7099 211.195 73.7896 211.195 73.0007C211.02 71.0715 211.254 69.0545 211.585 67.0863L208.926 69.1221L208.531 69.4379C206.699 70.9027 204.924 72.3218 203.206 73.8553C203.032 73.992 202.856 74.1287 202.679 74.2659C201.92 74.8542 201.151 75.4507 200.511 76.0904C199.853 76.8037 199.606 77.7003 199.352 78.6271C199.301 78.8107 199.251 78.9954 199.196 79.1802C198.892 80.2076 198.594 81.2411 198.294 82.2772C196.389 88.8649 194.453 95.558 191.045 101.466C190.991 101.562 190.938 101.658 190.884 101.755C190.825 101.863 190.765 101.972 190.705 102.081C189.588 104.12 188.485 106.134 185.917 106.791C182.63 107.579 179.935 104.95 178.751 102.123C177.437 98.9019 178.751 95.9436 180.658 93.1826C182.301 90.816 184.076 88.4494 185.983 86.28C187.297 84.768 188.744 83.4532 190.19 82.1384C190.685 81.6671 191.239 81.1958 191.804 80.7154C192.814 79.8556 193.859 78.9668 194.66 77.9969C195.498 76.9264 195.907 75.1968 196.285 73.6015L196.285 73.6014C196.441 72.9434 196.591 72.3083 196.764 71.7516L198.21 66.624C197.1 68.6328 195.692 70.514 194.329 72.3361L194.329 72.3365C193.997 72.7802 193.667 73.2204 193.345 73.6581C193.109 73.9871 192.873 74.3257 192.634 74.6679L192.633 74.6691C191.344 76.515 189.982 78.4657 188.152 79.5746C187.166 80.1663 186.246 80.4292 185.26 79.969C184.799 79.7718 182.301 77.5367 182.564 77.0765C182.63 77.1423 182.696 77.208 182.761 77.208L182.564 76.7478C182.696 77.4052 181.907 75.8932 181.841 75.7617C181.578 74.9071 181.512 73.9868 181.512 73.0664C181.512 72.4362 181.526 71.7786 181.566 71.1186C181.027 71.8129 180.473 72.491 179.881 73.1322L179.851 73.164C178.664 74.4166 176.71 76.4799 174.885 75.8932C174.49 75.7617 172.058 74.4469 172.124 74.1182L172.321 74.2497L171.926 73.8553C172.158 74.2261 171.867 74.0087 171.652 73.8482C171.562 73.781 171.486 73.7238 171.466 73.7238C171.137 73.3951 170.875 72.8692 170.677 72.4748C170.349 71.7516 170.283 71.0285 170.283 70.3054C170.283 69.8233 170.341 69.3412 170.4 68.8591C170.429 68.6181 170.458 68.377 170.48 68.136C170.495 67.9653 170.509 67.7972 170.523 67.6311L170.523 67.6303L170.523 67.63L170.523 67.6262V67.626C170.632 66.3225 170.73 65.1443 171.137 63.8629C171.145 63.8452 171.155 63.8177 171.169 63.7816L171.194 63.7174C171.49 62.9533 172.687 59.8637 173.11 59.9843C173.18 59.9843 173.118 60.1178 173.055 60.2512C173.002 60.3656 172.948 60.4799 172.978 60.5103L173.899 58.6696C173.882 58.6862 173.866 58.7029 173.851 58.7195C173.843 58.7293 173.834 58.7391 173.826 58.7488C173.815 58.761 173.805 58.7732 173.795 58.7852L173.778 58.8064L173.778 58.8064C173.712 58.886 173.655 58.9558 173.57 58.9982C173.504 58.9325 174.359 57.4205 174.556 57.0918C173.632 58.1542 172.838 59.249 172.037 60.3534L172.037 60.354C171.698 60.8213 171.358 61.2903 171.006 61.7593C170.64 62.2375 170.238 62.6436 169.852 63.034C169.335 63.556 168.846 64.0501 168.508 64.6518C167.991 65.5387 167.427 66.3979 166.866 67.2536L166.866 67.2539C165.929 68.6815 164.999 70.0994 164.301 71.6202L164.038 71.0943C162.864 72.5287 161.108 70.8591 160.438 69.7413C160.231 70.0172 160.019 70.2928 159.801 70.5683C159.599 70.8405 159.39 71.1375 159.171 71.447C157.966 73.1562 156.489 75.2507 154.541 75.696C154.016 75.7617 151.517 75.1043 151.583 74.7099H151.715C151.485 74.5953 151.456 74.643 151.43 74.6843C151.397 74.7379 151.371 74.7808 150.926 74.4469C150.334 74.0525 149.94 73.4609 149.545 72.8692C149.366 72.6252 149.175 72.3892 148.985 72.1544C148.626 71.7111 148.271 71.2717 148.005 70.7892C147.502 71.5015 146.992 72.2138 146.482 72.9261L146.481 72.9279L146.479 72.9297L146.478 72.9315L146.477 72.9333L146.476 72.9351C145.942 73.6801 145.409 74.4251 144.883 75.1701C143.306 77.3395 141.596 79.5089 139.493 81.2838C139.373 81.3639 139.009 81.6452 138.555 81.9959C137.519 82.7967 136.014 83.9591 135.877 83.9134C135.877 83.8476 135.943 83.7819 136.009 83.7162L135.548 83.9134C135.877 83.8476 134.628 84.7023 134.299 84.8337C133.379 85.031 132.393 84.768 131.604 84.2421C130.75 83.7162 130.289 82.9273 129.895 82.007C129.238 80.5607 129.172 79.1802 129.435 77.6024C129.5 77.2737 130.421 73.4609 130.881 73.5266C130.954 73.5266 130.906 73.6879 130.859 73.843C130.822 73.968 130.786 74.0889 130.815 74.1182L131.275 72.4748C131.078 72.409 134.562 65.0462 134.891 64.5861C133.175 64.9293 131.061 64.9241 129.631 63.791L127.887 66.0981L124.337 70.6998C123.877 71.2914 123.367 71.8665 122.858 72.4417L122.858 72.4419L122.858 72.4421C122.348 73.0172 121.839 73.5924 121.379 74.184C121.05 74.6223 120.736 75.0678 120.422 75.5134C119.794 76.4045 119.165 77.2957 118.42 78.1283C117.237 79.3774 115.857 80.6922 114.279 81.5468C113.161 82.1384 112.109 82.2042 110.926 81.8755C109.217 81.4153 107.705 80.3635 106.587 79.0487C106.55 79.0034 106.512 78.959 106.474 78.915C106.187 78.5762 105.922 78.2652 105.864 77.7996C105.798 77.4052 105.733 76.945 105.733 76.4849C105.688 75.9502 105.795 75.5061 105.909 75.0298C105.963 74.8034 106.019 74.5697 106.061 74.3155C106.127 73.8882 106.259 73.4773 106.39 73.0664C106.522 72.6556 106.653 72.2447 106.719 71.8174C106.788 71.3325 106.894 70.8659 106.998 70.408C107.091 69.9966 107.182 69.5922 107.245 69.1878C107.269 68.8922 107.266 68.5874 107.263 68.2803C107.258 67.7678 107.253 67.2488 107.376 66.7555C107.446 66.4756 107.591 66.1957 107.74 65.9059C107.872 65.6512 108.007 65.3888 108.099 65.112C108.026 65.2585 107.935 65.4049 107.845 65.548L107.845 65.5481L107.845 65.5482L107.845 65.5483L107.845 65.5484L107.845 65.5485L107.845 65.5487L107.845 65.5488C107.694 65.7908 107.549 66.0231 107.508 66.2296C107.423 66.4553 107.35 66.681 107.28 66.9016L107.279 66.9023L107.279 66.9038L107.279 66.904L107.279 66.9043C107.185 67.1966 107.094 67.4797 106.982 67.7416C106.883 68.0045 106.817 68.251 106.752 68.4976C106.686 68.7441 106.62 68.9906 106.522 69.2536L106.5 69.301L106.44 69.4352C106.206 69.9554 105.989 70.4391 105.93 71.0285C105.897 71.3243 105.897 71.6202 105.897 71.916C105.897 72.2118 105.897 72.5077 105.864 72.8035C105.843 72.8968 105.823 72.9868 105.802 73.0746C105.694 73.5435 105.601 73.9486 105.601 74.4469C105.601 74.5555 105.641 74.7238 105.677 74.8751L105.677 74.8752L105.677 74.8753C105.706 74.9988 105.733 75.111 105.733 75.1701C105.733 75.2942 105.703 75.433 105.672 75.5796C105.638 75.7434 105.601 75.9169 105.601 76.0904C105.601 76.4669 105.654 76.8434 105.71 77.2368L105.71 77.2373L105.71 77.2374L105.71 77.2376L105.71 77.2379L105.71 77.2383L105.71 77.2384L105.71 77.2388L105.71 77.2394C105.742 77.4634 105.775 77.693 105.798 77.9311C104.747 76.0904 104.944 74.2497 105.273 72.2776C105.344 71.8463 105.413 71.4183 105.481 70.9927L105.481 70.9923C105.726 69.4715 105.965 67.982 106.324 66.4925C106.374 66.2678 106.426 66.0433 106.482 65.8191C105.555 66.4951 104.652 67.211 103.765 67.9147C103.392 68.2111 103.021 68.5052 102.652 68.7934C99.9569 70.8313 97.3273 72.9349 94.7635 75.1043C93.0572 76.5262 92.3078 79.2466 91.6282 81.7134L91.6282 81.7135L91.6281 81.7137L91.6281 81.7138C91.3651 82.6683 91.1126 83.5849 90.8191 84.3736C90.5384 85.1632 90.2623 85.9575 89.9859 86.7528L89.985 86.7555L89.9849 86.7558C89.2261 88.9389 88.465 91.1289 87.5979 93.2483C86.7433 95.6149 85.6258 97.7843 84.3767 99.9537C84.1666 100.332 83.9594 100.728 83.7489 101.131L83.7488 101.131L83.7488 101.131C82.9714 102.618 82.148 104.192 80.9583 105.279C79.1176 106.922 76.5538 107.448 74.1872 106.593C68.7965 104.621 69.9141 99.2963 72.0835 95.4177C72.8525 94.0507 73.788 92.8225 74.7277 91.5887L74.7277 91.5887C75.2341 90.9239 75.7417 90.2575 76.2251 89.5669C77.3426 87.9892 78.5917 86.3457 80.0379 84.8995C82.0101 82.8616 84.1795 80.8894 86.3489 78.9829C86.576 78.7558 86.8277 78.5409 87.0774 78.3277C87.4059 78.0473 87.7309 77.7697 87.9924 77.4709C88.5769 76.8864 88.7764 76.2378 89.0347 75.3982L89.0442 75.3673L90.2932 71.4887C90.9304 69.6304 91.5246 67.7291 92.1106 65.8543L92.1137 65.8445C92.2522 65.4013 92.3903 64.9596 92.5284 64.5203C92.7043 64.0218 92.8672 63.5101 93.0287 63.0029C93.2292 62.3731 93.4275 61.7502 93.6459 61.1676C93.738 60.9529 93.8014 60.6665 93.8629 60.3887C93.9332 60.0713 94.0009 59.7652 94.1061 59.5899C95.7496 57.1576 101.074 59.5899 99.5625 62.6139C98.9931 63.7774 98.3305 64.9222 97.6625 66.0765C96.5565 67.9875 95.4355 69.9244 94.6978 72.0146C97.656 69.648 100.614 67.3471 103.77 65.2435C104.209 64.9415 104.66 64.651 105.107 64.3624L105.108 64.3622L105.108 64.3621L105.108 64.3619L105.109 64.3617L105.109 64.3615L105.109 64.3613C105.733 63.9591 106.351 63.5606 106.925 63.1398C107.02 63.0637 107.136 62.9614 107.266 62.8465C107.333 62.7872 107.404 62.7245 107.478 62.6603C108.443 60.1524 109.787 57.7711 111.452 55.7113C113.49 53.016 116.185 50.9781 119.735 51.6355C121.05 51.8984 122.496 52.4901 123.351 53.6076C124.271 54.8567 124.205 56.4344 123.745 57.8807C122.891 60.4445 120.721 62.4824 118.683 64.1916C117.829 64.9148 116.908 65.6379 115.922 66.2296C115.265 66.624 114.542 66.8869 113.819 67.1499L112.701 67.5443C112.614 67.5692 112.541 67.5869 112.479 67.6022L112.478 67.6025L112.477 67.6026L112.477 67.6027C112.211 67.6675 112.137 67.6854 111.978 68.0045C111.776 68.4091 111.773 68.8136 111.769 69.2182C111.767 69.471 111.766 69.7238 111.715 69.9767C111.604 70.6953 111.447 71.3674 111.283 72.0712C111.252 72.2044 111.22 72.3387 111.189 72.4748C111.155 72.6387 111.119 72.8075 111.081 72.9804L111.08 72.9852L111.08 72.9874C110.76 74.4773 110.376 76.2635 110.729 77.7339C111.445 81.0557 116.873 75.9883 117.932 74.9994L117.96 74.9729C118.401 74.5761 118.812 74.1498 119.214 73.7336L119.214 73.7336L119.214 73.7335L119.214 73.7335L119.214 73.7334L119.214 73.7334L119.214 73.7333L119.214 73.7333L119.215 73.7325C119.412 73.5284 119.606 73.3267 119.801 73.1322C119.932 72.975 120.073 72.8282 120.213 72.6836C120.423 72.4653 120.629 72.2518 120.787 72.0146C120.787 72.0146 120.918 71.6859 120.918 71.5544C121.572 70.5192 122.407 69.5291 123.235 68.5468L123.235 68.5467L123.235 68.5461L123.236 68.5455L123.236 68.545C123.407 68.3427 123.577 68.1407 123.745 67.9388C124.825 66.6789 125.795 65.3643 126.806 63.9949L126.806 63.9947L127.098 63.6C127.154 63.5191 127.217 63.424 127.286 63.3198L127.287 63.3191C127.62 62.8175 128.094 62.1027 128.604 61.7203C128.522 61.5234 128.432 61.3636 128.345 61.2113C128.231 61.0092 128.124 60.8204 128.054 60.576C127.397 57.3548 131.144 52.8845 134.299 55.0539L134.168 54.8567C134.234 54.4622 135.023 55.4483 135.088 55.777C135.088 56.04 134.562 57.8807 134.234 57.7492C134.193 57.7492 134.358 57.2849 134.487 56.9219L134.487 56.9214C134.564 56.7051 134.628 56.5247 134.628 56.5002C134.44 57.0113 134.097 57.5444 133.75 58.0861C133.247 58.868 132.734 59.6678 132.656 60.4445C132.538 61.3313 132.951 61.4206 133.657 61.573L133.658 61.5732L133.66 61.5737C133.726 61.5878 133.794 61.6025 133.864 61.6184C133.877 61.6215 133.891 61.6246 133.905 61.6278C134.473 61.7773 135.191 61.818 135.953 61.8612C136.866 61.9131 137.844 61.9686 138.704 62.2195C137.948 61.9832 137.09 61.8828 136.35 61.7962C136.06 61.7623 135.789 61.7305 135.548 61.6936C135.548 61.6936 135.483 61.6936 135.483 61.6278C135.868 61.6792 136.264 61.7105 136.654 61.7414C137.261 61.7895 137.855 61.8364 138.375 61.9565C140.282 62.4167 141.465 63.1398 140.676 65.1777C140.203 66.3212 139.659 67.4648 139.115 68.6083L139.115 68.6085L139.114 68.6087L139.114 68.6088L139.114 68.609L139.114 68.6092L139.114 68.6094C138.751 69.3719 138.388 70.1345 138.047 70.897C137.521 72.1242 137.053 73.4097 136.586 74.6953C136.352 75.3381 136.118 75.9809 135.877 76.6163C135.829 76.777 135.706 77.0634 135.556 77.4141L135.555 77.415L135.555 77.4153C135.09 78.4991 134.362 80.1956 134.76 80.6922C135.417 81.481 139.033 78.1941 140.019 77.1423C139.91 77.2508 139.802 77.2996 139.704 77.3435C139.624 77.3793 139.552 77.4118 139.493 77.4709C139.384 77.4709 140.361 76.2041 140.809 75.6222C140.901 75.5027 140.971 75.4121 141.005 75.3673L142.911 72.9349L146.461 68.2675L148.017 66.1746C148.16 65.0392 149.042 61.7585 149.151 61.4306C149.256 61.1545 149.351 60.8705 149.445 60.5865C149.824 59.4505 150.203 58.3146 151.254 57.6835C152.241 57.0261 153.49 57.1576 154.739 57.6835C155.265 57.8807 156.777 58.5381 156.777 59.1955C156.777 59.4772 156.609 59.5912 156.441 59.7053C156.374 59.7509 156.307 59.7965 156.251 59.8529C156.316 59.7871 156.448 59.7871 156.514 59.7871C156.711 59.9186 155.725 61.2991 155.593 61.2334C155.499 61.2334 155.573 61.0657 155.647 60.898L155.673 60.838C155.682 60.8164 155.691 60.7951 155.7 60.7745C155.705 60.7621 155.709 60.75 155.714 60.7382C155.718 60.7277 155.721 60.7174 155.725 60.7075C154.476 62.7454 153.424 65.0462 152.635 67.3471C152.964 66.4925 154.607 62.8111 154.804 62.8769C154.848 62.8915 154.657 63.2961 154.357 63.9281C153.314 66.1273 150.965 71.0808 152.701 71.9489C153.651 72.4238 155.19 71.1295 156.012 70.4384C156.101 70.3642 156.181 70.297 156.251 70.2396C156.456 70.0777 156.673 69.9087 156.898 69.7344C158.04 68.8469 159.36 67.821 160.129 66.8869C159.998 67.0184 159.866 67.0184 159.669 67.0184C159.589 66.9188 159.836 66.4511 160.234 65.8364C160.239 65.767 160.243 65.6976 160.247 65.6281V65.6279C160.291 64.9243 160.335 64.2109 160.553 63.4685C160.893 62.2795 161.33 61.1392 161.781 59.9638L161.781 59.9632C161.854 59.7741 161.927 59.584 162 59.3927C162.46 58.0122 162.92 56.6316 163.446 55.2511C163.568 54.9348 163.734 54.5914 163.906 54.2377L163.906 54.2374C164.198 53.6357 164.505 53.0039 164.629 52.4243C164.679 52.2403 164.704 52.0734 164.727 51.918C164.794 51.4628 164.847 51.1072 165.484 50.7151C166.273 50.2549 167.127 50.3207 167.982 50.4522C169.034 50.6494 170.94 51.7669 169.823 53.4104C169.593 53.7062 169.28 54.0184 168.96 54.3388L168.96 54.339C168.639 54.6595 168.311 54.9882 168.048 55.3169C167.611 55.8504 167.533 56.1692 167.416 56.643L167.416 56.6432C167.374 56.8115 167.328 56.9993 167.259 57.2233C167.182 57.532 166.969 57.8181 166.753 58.1081C166.601 58.3121 166.447 58.5181 166.339 58.7353C165.982 59.3898 165.732 60.2059 165.493 60.9886C165.468 61.0706 165.443 61.1523 165.418 61.2334C165.339 61.5501 165.331 61.8192 165.323 62.098C165.318 62.2821 165.313 62.4705 165.287 62.6796C165.221 63.3699 165.073 64.0602 164.925 64.7505L164.925 64.7509C164.777 65.441 164.629 66.1311 164.564 66.8212C164.629 66.5583 165.089 66.0981 165.155 66.1638C165.192 66.2004 164.985 66.5619 164.805 66.8758L164.804 66.876L164.804 66.8765L164.804 66.8768L164.804 66.8771C164.66 67.1274 164.534 67.3471 164.564 67.3471L168.442 61.6936C167.588 62.8111 166.93 63.6 166.93 63.6C166.733 63.4685 174.556 53.4762 175.476 52.6216C177.383 50.8466 179.815 50.9123 180.735 54.0021C181.504 56.4036 179.886 58.2086 178.343 59.9297C177.775 60.5643 177.216 61.1875 176.791 61.825C176.02 63.0111 175.356 64.4113 174.751 65.6875L174.64 65.9214L174.556 66.0981C174.096 66.9527 173.11 68.8591 172.978 70.3054C173.071 69.6057 173.463 68.8068 173.776 68.1669C173.904 67.9049 174.019 67.6696 174.096 67.4786C174.622 66.0981 175.345 64.9805 176.397 63.9944C176.193 64.3731 175.976 64.7388 175.763 65.0974L175.763 65.098L175.763 65.0984C175.496 65.5487 175.236 65.9877 175.016 66.4268L175.345 66.0323C175.476 66.0323 174.753 68.2675 174.687 68.3989C174.424 69.1878 174.161 70.0424 174.096 70.897C174.03 70.9628 174.096 72.0146 174.096 72.0146L174.161 72.0803C174.161 72.042 174.318 72.0036 174.475 71.9653L174.475 71.9652C174.587 71.9379 174.698 71.9105 174.753 71.8831C175.602 71.6 176.452 70.8781 177.175 70.2632C177.291 70.1641 177.405 70.0679 177.514 69.9767C178.685 69.0495 179.82 68.0498 180.946 67.0584L180.946 67.0582C181.337 66.7141 181.726 66.371 182.116 66.0323C182.51 65.6614 182.945 65.2904 183.384 64.9165L183.384 64.9163L183.487 64.8281C183.902 64.1367 184.671 62.9769 184.865 63.0741C184.894 63.0741 184.845 63.1658 184.788 63.2732C184.716 63.4064 184.632 63.5636 184.668 63.6L185.785 61.9565C185.72 62.0222 185.588 62.1537 185.457 62.1537C184.997 61.8908 191.308 55.1196 191.965 54.528C193.017 53.4762 194.134 52.5558 195.449 51.8984C195.931 51.6355 196.296 51.6063 196.662 51.577C196.844 51.5624 197.027 51.5478 197.224 51.504C197.528 51.466 197.722 51.362 197.921 51.2557C198.066 51.1781 198.213 51.0993 198.407 51.0438C199.985 50.6494 202.352 51.1753 203.338 52.4901C204.061 53.2789 204.455 55.9085 202.812 55.9742C202.53 55.9742 202.349 55.8399 202.148 55.6912C202.068 55.6319 201.985 55.5703 201.892 55.5141L202.089 55.7113C202.089 55.7113 200.314 55.6456 199.525 55.777L200.38 55.4483C196.435 56.1057 193.083 60.9047 190.979 63.9287C191.028 63.8684 191.098 63.7825 191.185 63.6751L191.186 63.6749C192.146 62.4944 195.219 58.7188 196.304 57.8149C195.12 58.9325 191.505 63.5342 191.242 63.9287C189.467 66.4925 187.823 69.3193 186.837 72.2776C186.509 73.1979 185.128 78.72 187.495 76.8793C189.204 75.6302 191.11 73.3951 192.425 71.6202C192.359 71.6859 192.294 71.7516 192.228 71.7516C192.031 71.7516 193.28 69.9109 193.477 69.648L195.252 66.9527C195.876 66.0652 196.485 65.1448 197.093 64.2244C197.701 63.3041 198.309 62.3838 198.933 61.4963C199.034 61.3577 199.147 61.1926 199.269 61.0138C199.784 60.2598 200.465 59.2639 201.103 58.9982C203.798 57.8149 207.151 60.1816 205.507 62.9426C203.732 66.0323 201.892 69.3193 200.84 72.6062C201.083 72.7521 203.123 70.957 204.409 69.8256L204.409 69.8255C204.862 69.4268 205.222 69.1105 205.376 68.9906L205.376 68.9903C206.822 67.8071 208.268 66.6239 209.78 65.5722C210.339 65.145 210.914 64.7507 211.489 64.3564L211.489 64.3563L211.489 64.356C211.717 64.2 211.945 64.0439 212.171 63.8858C213.283 57.8083 214.779 51.734 216.783 45.8504C218.267 41.3986 220.394 37.3144 222.55 33.1753C222.973 32.3635 223.397 31.5496 223.817 30.7304C223.817 30.6647 224.146 29.2842 224.475 29.0869C224.409 29.1527 224.014 30.336 224.014 30.336L224.803 28.824C224.803 28.824 224.737 28.824 224.672 28.7582C224.672 27.7911 225.638 26.4287 226.35 25.4248L226.35 25.4244C226.509 25.2002 226.655 24.9939 226.775 24.8139C227.696 23.3019 228.682 21.8556 229.734 20.4094C230.018 20.013 230.301 19.6103 230.586 19.2057C232.14 16.9935 233.736 14.724 235.847 13.1123C237.162 12.1263 238.74 11.2059 240.449 11.3374C241.304 11.3374 242.158 11.6661 242.75 12.2577C243.013 12.5207 244.196 14.5586 243.802 14.8216C243.802 14.8216 243.473 13.8355 243.407 13.8355C243.802 14.8873 243.868 16.0706 243.802 17.1224C243.808 17.11 243.814 17.0982 243.819 17.087C243.83 17.0633 243.838 17.0423 243.846 17.0238C243.873 16.9581 243.887 16.9252 243.933 16.9252C244.262 16.9252 242.816 22.9732 242.684 23.4991C242.027 25.8 241.107 28.0351 240.12 30.2045C237.885 34.8063 235.19 39.7367 231.837 43.681C231.467 44.088 231.035 44.4326 230.622 44.7615C230.301 45.017 229.992 45.2631 229.734 45.5217C229.381 45.9091 229.086 46.353 228.786 46.8031C228.527 47.1931 228.264 47.5878 227.959 47.9541C226.249 49.9263 224.409 51.7669 222.502 53.4762C221.385 54.528 220.99 55.1196 220.464 56.5659C220.266 57.1621 220.079 57.7584 219.894 58.3493L219.894 58.3513L219.894 58.3517C219.651 59.1282 219.411 59.8955 219.15 60.6417C218.295 63.2713 217.506 65.9009 216.783 68.5962C217.901 66.8869 219.084 65.2435 220.333 63.6C219.478 64.5861 218.887 65.3092 218.887 65.3092C218.755 65.2435 227.038 55.1196 227.893 54.1993C228.051 54.0304 228.22 53.8459 228.398 53.6511C230.441 51.4195 233.713 47.8446 236.373 51.1096C237.997 53.123 236.797 55.5215 235.817 57.4808L235.782 57.552C235.571 57.9971 235.355 58.4512 235.135 58.9122C233.57 62.1956 231.839 65.8282 230.917 69.0563C230.935 69.0381 230.974 68.9492 231.024 68.833C231.155 68.5298 231.366 68.0409 231.509 68.136C231.803 68.43 231.22 70.222 230.85 71.3602C230.723 71.7488 230.622 72.0612 230.588 72.2118C230.584 72.2397 230.579 72.2736 230.572 72.3128C230.564 72.3622 230.554 72.4199 230.543 72.4845C230.415 73.2148 230.134 74.8206 230.588 75.1043C231.301 75.5977 232.471 74.4454 233.183 73.744C233.325 73.6043 233.448 73.4825 233.547 73.3951C235.634 71.366 237.567 69.1323 239.483 66.9195C239.74 66.6232 239.996 66.3273 240.252 66.0323C240.395 65.854 240.537 65.6735 240.681 65.492L240.681 65.4918C241.331 64.6699 241.996 63.8279 242.75 63.0741C242.796 63.0286 242.855 62.9585 242.924 62.8777ZM238.083 17.8456C238.083 17.9113 238.017 17.9113 238.017 17.9113H238.083L238.017 17.977C238.017 18.0428 237.951 18.0428 237.951 18.0428C235.868 21.3415 234.039 24.8949 232.241 28.3891C231.996 28.8641 231.752 29.3381 231.509 29.8101C231.053 30.7052 230.585 31.6085 230.115 32.5158L230.115 32.5166L230.114 32.5178L230.114 32.5185L230.113 32.519C228.686 35.2753 227.239 38.0691 226.052 40.7885C226.249 40.4598 226.447 40.1311 226.578 40.0654C226.578 40.0654 225.198 43.944 225 44.3384L223.028 49.5318C227.761 44.5356 231.837 38.9478 235.19 33.0313C233.875 35.2007 232.495 37.3701 231.048 39.3422L228.419 43.0236L227.236 44.2069L227.761 43.6153C228.419 42.8264 229.011 42.0376 229.602 41.2487C230.72 39.6709 231.837 38.0275 232.889 36.384C235.059 32.9656 237.031 29.4814 238.608 25.8C239.397 23.8936 240.186 21.9214 240.712 19.8835C240.732 19.8069 240.756 19.7196 240.783 19.6234L240.783 19.6233L240.783 19.6231C241.097 18.4801 241.758 16.075 240.909 15.3475C240.097 14.6508 238.976 16.4149 238.363 17.3802L238.363 17.3804C238.282 17.5081 238.21 17.6219 238.148 17.7141C238.214 17.6483 238.148 17.7798 238.083 17.9113V17.8456ZM223.783 42.9434C222.858 45.3222 221.93 47.7075 221.516 50.1892L221.466 50.3395C221.457 50.3514 221.451 50.3656 221.451 50.3864C221.438 50.448 221.419 50.5348 221.397 50.6354L221.397 50.6357C221.3 51.0723 221.146 51.7669 221.253 51.7669C221.056 51.7012 223.686 44.7986 223.949 44.1412C224.18 43.5338 224.462 42.9645 224.745 42.3942C225.105 41.6684 225.466 40.941 225.724 40.1311C226.249 38.6191 226.907 37.3043 227.63 35.9238C227.847 35.4563 228.531 34.1109 229.421 32.3584L229.423 32.3538L229.425 32.3505L229.425 32.3501C232.041 27.2017 236.437 18.5508 236.045 18.3057C235.913 18.24 229.602 30.2703 229.011 31.585C228.527 32.6011 227.989 33.5994 227.451 34.5995L227.451 34.5996C226.527 36.3172 225.599 38.0402 224.935 39.8682C224.579 40.8965 224.181 41.9188 223.783 42.9424L223.783 42.9434ZM221.451 50.3864C221.451 50.3864 221.515 50.3215 221.516 50.2562C221.516 50.2882 221.5 50.3045 221.483 50.3207C221.477 50.3267 221.471 50.3327 221.466 50.3395L221.451 50.3864ZM226.236 45.3484L226.235 45.3486L226.235 45.3488C226.17 45.4429 226.111 45.5284 226.052 45.5875C226.184 45.3902 226.315 45.193 226.512 44.9958C226.404 45.1044 226.315 45.2329 226.236 45.3484ZM42.6976 89.5012C44.5383 90.4873 47.5623 90.1586 49.403 89.5012C49.5608 89.4539 49.8286 89.3269 50.1472 89.1759L50.1473 89.1758L50.1475 89.1757C51.1555 88.6977 52.6716 87.9789 52.8214 88.7781C53.0741 89.7887 51.2027 91.4668 50.4725 92.1216L50.3891 92.1965C49.2715 93.1169 47.9567 93.7743 46.5762 94.103C43.6837 94.8918 41.5143 93.84 39.6736 91.4734C35.8607 86.5429 36.5181 80.6922 38.0959 75.1701C38.0959 75.1701 38.1616 73.8553 38.4246 73.6581C38.4246 73.7238 38.3588 74.3155 38.2931 74.5784L38.6117 73.4315C38.5907 73.4609 38.5405 73.4609 38.4903 73.4609C38.334 72.8356 38.7971 71.7149 39.1269 70.9168C39.2132 70.7079 39.2904 70.5211 39.3449 70.3711L40.7912 67.0842C41.6458 65.1777 42.3689 63.337 43.092 61.3649C43.6183 59.786 44.3883 58.2768 45.1487 56.7866C45.4331 56.2292 45.7161 55.6744 45.9846 55.1196C46.0386 55.0296 46.1814 54.7274 46.3657 54.3375C46.8542 53.3039 47.6343 51.6535 47.8253 51.7012C47.8253 51.7012 47.5623 52.4901 47.628 52.5558C48.0882 51.4383 48.4826 50.3207 48.8771 49.1374L48.4169 50.0577C48.3951 49.7743 48.5469 49.3462 48.7091 48.8886C49.0359 47.9666 49.4053 46.9247 48.4826 46.705C47.4912 46.4718 46.0859 47.7906 45.2764 48.5502L45.2762 48.5504C45.1733 48.647 45.08 48.7345 44.9985 48.8087C42.0402 51.504 39.7393 54.6595 37.4385 57.9464C37.2167 58.2596 37 58.5727 36.7844 58.8843L36.7844 58.8845L36.7843 58.8845C35.9138 60.1428 35.0608 61.376 33.9543 62.4824C33.4202 62.9755 33.0144 63.7253 32.6087 64.4751L32.6086 64.4752C32.3652 64.9251 32.1218 65.375 31.8506 65.7694C31.19 66.8338 30.5703 67.8982 29.9573 68.9511C29.4723 69.7841 28.9916 70.6099 28.4979 71.4229C28.2297 71.8924 27.9234 72.3543 27.6153 72.8189C27.0174 73.7205 26.4127 74.6324 26.0656 75.6302C25.4082 77.4709 24.6851 79.1144 22.6472 77.208C20.675 75.3016 20.675 72.8035 21.2009 70.3054C22.6472 62.8769 26.5915 55.6456 30.4044 49.2031C32.0479 46.4421 33.4941 43.3523 34.6117 40.3283C34.6431 40.2446 34.6829 40.1491 34.7254 40.047C34.9498 39.5083 35.251 38.7849 34.8089 38.6191C34.2202 38.3836 32.8935 39.3606 32.2922 39.8035L32.1996 39.8716L32.1622 39.8988L32.1136 39.9339C29.201 42.0867 26.9592 44.9714 24.7421 47.8242L24.4879 48.1513C22.187 51.1753 20.0833 54.3308 17.9797 57.552C15.7446 60.9047 13.6409 64.3231 11.5373 67.7416C11.3122 68.1167 11.0802 68.4884 10.8485 68.8598C10.065 70.1156 9.28355 71.3679 8.77621 72.7377C8.26746 73.894 7.82378 75.0828 7.37651 76.2812L7.37648 76.2813C7.18802 76.7863 6.99891 77.293 6.80403 77.7996C6.68214 78.1247 6.56652 78.5063 6.44554 78.9055C6.17504 79.7982 5.87774 80.7794 5.42351 81.4153C4.5689 82.5986 2.85968 82.5329 1.74212 81.6125C0.756032 80.8236 0.493075 79.5746 0.558815 78.3256C0.756032 74.7099 2.33377 70.8313 3.71429 67.5443C4.13196 66.5499 4.55564 65.5675 4.97805 64.588C5.95187 62.33 6.91896 60.0876 7.79012 57.7492C8.77186 55.0623 9.93637 52.4161 11.1041 49.7625C12.9076 45.664 14.7188 41.5482 15.876 37.2386V37.896L16.2705 35.4636C16.5334 33.8859 16.4677 32.3082 14.4955 32.7683C13.0492 33.1628 11.8659 34.2146 10.8799 35.3322C8.51325 37.8302 6.73829 41.0515 5.55499 44.2727C5.29203 44.9301 5.09481 45.9819 5.02908 46.3763C5.01023 46.5271 5.01299 46.6725 5.01569 46.814C5.02239 47.1661 5.02863 47.4943 4.70038 47.8226C3.91151 48.48 3.0569 47.9541 2.53099 47.2309C1.47916 45.6532 1.61064 43.1551 2.07081 41.3802C2.3408 40.4545 2.83707 39.6872 3.33392 38.9191C3.68394 38.3779 4.03424 37.8363 4.30594 37.2386C4.37994 37.0659 4.41692 36.884 4.45507 36.6964C4.51861 36.3838 4.58541 36.0552 4.83186 35.7266L5.48925 34.8063C6.21238 34.0174 6.93551 33.2943 7.72438 32.5711C9.23638 31.3221 10.8799 30.4017 12.7863 29.8101C14.8899 29.1527 17.1908 29.0212 18.8343 30.7962C19.8861 31.9137 20.4778 33.9516 20.8065 35.3979C21.2666 37.4358 20.6093 39.9996 20.0176 41.9061C19.9048 42.2697 19.7919 42.6356 19.6786 43.0031C19.1979 44.5624 18.7089 46.1483 18.1769 47.6911C17.8022 48.8569 17.3748 49.9963 16.9447 51.1427C16.6957 51.8064 16.4458 52.4725 16.2047 53.1475C15.9011 53.9824 15.6851 54.7954 15.4683 55.6118C15.3095 56.2096 15.1502 56.8092 14.9557 57.4205C18.3741 52.0956 22.0555 46.5736 26.46 41.9061C26.7796 41.5671 27.1648 41.1126 27.601 40.598C30.1253 37.6195 34.3555 32.6283 37.4385 36.384C39.0819 38.4219 39.6736 41.5116 38.6875 43.944C38.1979 45.1331 37.5036 46.2477 36.8125 47.3572C36.2046 48.3333 35.5991 49.3054 35.1376 50.3207C34.4409 51.9106 33.7102 53.4908 32.9785 55.0732L32.9785 55.0732L32.9784 55.0733C31.0176 59.3139 29.0496 63.5701 27.7091 68.0703C30.0757 63.9944 32.508 59.9186 35.2691 56.04C35.041 56.3593 34.797 56.6787 34.551 57.0008L34.5509 57.0009L34.5507 57.0011C34.2353 57.414 33.9165 57.8314 33.6232 58.2591C34.6403 56.6881 35.4958 55.4115 35.7293 55.1196C38.0301 51.9642 40.4625 48.8744 43.4207 46.2449C44.9985 44.7986 47.1021 43.0894 49.403 43.0894C52.0983 43.0236 53.8075 45.456 54.2677 47.8883C55.1076 52.4555 52.8035 56.7711 50.6695 60.7682C50.1311 61.7766 49.6036 62.7647 49.14 63.7315C49.2715 63.4685 49.4687 63.2713 49.6002 63.2713C49.6659 63.2713 47.9567 67.5443 47.7595 67.9388C47.4328 68.701 47.1174 69.4633 46.8039 70.2209L46.8038 70.2211L46.8037 70.2214L46.8036 70.2216L46.8036 70.2218C46.3602 71.2933 45.9207 72.3555 45.4586 73.3951C44.0781 76.8136 42.6976 80.2977 41.9087 83.8476L41.8795 83.9739C41.4808 85.6959 40.8374 88.4749 42.6976 89.5012ZM33.2312 58.8668C33.3638 58.6605 33.4948 58.4575 33.6232 58.2591C33.4859 58.4592 33.3543 58.6616 33.2312 58.8668ZM42.3032 66.0981C41.7772 67.3471 41.2513 68.5962 40.6597 69.7795C39.8182 71.5149 39.3134 73.2504 38.8085 74.9859L38.8085 74.986C38.6823 75.4199 38.556 75.8538 38.4246 76.2876C39.0819 74.3155 39.9366 72.3433 40.7912 70.4369C40.8904 70.2259 40.992 70.0115 41.0951 69.794C42.0835 67.7077 43.2012 65.3488 43.6179 63.2056C43.8152 62.8111 43.8152 62.6139 43.6179 62.5482C43.1867 63.0656 42.9252 64.0073 42.685 64.8724C42.559 65.3261 42.4389 65.7588 42.3032 66.0981ZM12.8192 46.8037C12.4083 47.9212 11.9974 49.0388 11.5373 50.1235C10.3539 52.8188 9.30212 55.5141 8.25029 58.2751C9.4336 55.3169 10.6826 52.4243 12.0632 49.5976C13.5094 46.6393 14.4955 43.5496 15.2844 40.4598C14.9774 41.4421 14.5558 42.4244 14.1801 43.2996L14.1801 43.2996L14.1801 43.2997L14.1011 43.4838C13.6409 44.5685 13.23 45.686 12.8192 46.8036L12.8192 46.8037ZM32.5738 59.8529C30.8646 62.6139 29.0239 65.4407 29.0239 65.4407C29.2211 65.5064 31.6534 61.4306 32.5738 59.8529ZM32.7053 59.6556C32.7053 59.7214 32.6395 59.7871 32.5738 59.8529L32.7053 59.6556ZM32.7053 59.6556L32.9682 59.3269V59.2612L32.7053 59.6556ZM42.5661 47.2967L40.1338 49.8605C40.9226 48.9402 41.7115 48.0856 42.5661 47.2967ZM39.6079 50.5179L39.6736 50.4522L39.7393 50.3207L39.8051 50.2549L39.9366 50.1235L40.0023 50.0577L40.1338 49.8605L40.0023 49.992C40.0023 49.992 40.0023 50.0566 39.9382 50.0577C39.9649 50.0294 39.987 50.0073 40.0022 49.9921L39.9366 50.0577L39.9382 50.0577C39.849 50.1523 39.709 50.3156 39.6079 50.5179ZM39.6079 50.5179V50.4522L39.4764 50.6494L39.6079 50.5179ZM37.8986 78.3913C37.7014 78.3256 37.7014 78.1941 37.8986 77.9311C38.0301 77.9969 38.0301 78.1283 37.8986 78.3913ZM77.3128 61.4306C77.2319 61.6733 76.7277 63.5345 76.4132 64.9454C75.6467 65.9754 74.8833 66.9732 74.0557 67.9388C73.8876 68.1405 73.7175 68.3423 73.5472 68.5444L73.5467 68.545L73.5462 68.5455L73.5457 68.5461L73.5452 68.5467L73.5451 68.5468C72.7172 69.5291 71.8827 70.5192 71.2289 71.5544C71.2289 71.6859 71.0974 72.0146 71.0974 72.0146C70.9393 72.2518 70.7335 72.4653 70.5231 72.6836C70.3838 72.8282 70.2423 72.975 70.1113 73.1322C69.9168 73.3267 69.7222 73.5284 69.5253 73.7325L69.5245 73.7333L69.5245 73.7333L69.5244 73.7334L69.5244 73.7334L69.5243 73.7335L69.5243 73.7335L69.5243 73.7336L69.5242 73.7336L69.5242 73.7337L69.5241 73.7337L69.5241 73.7338C69.1226 74.1499 68.7114 74.5762 68.2706 74.9729L68.2422 74.9994C67.183 75.9883 61.7558 81.0557 61.0393 77.7339C60.6864 76.2635 61.0703 74.4772 61.3904 72.9874C61.4281 72.8121 61.4649 72.6409 61.4995 72.4748C61.5304 72.341 61.5613 72.2088 61.5919 72.0777L61.5931 72.0725L61.5934 72.071C61.7579 71.3673 61.9149 70.6952 62.0254 69.9767C62.076 69.7238 62.0779 69.471 62.0799 69.2182C62.083 68.8136 62.0861 68.4091 62.2884 68.0045C62.4479 67.6854 62.5214 67.6675 62.7873 67.6027L62.7876 67.6026C62.8503 67.5873 62.9237 67.5694 63.0115 67.5443L64.1291 67.1499C64.8522 66.8869 65.5753 66.624 66.2327 66.2296C67.2188 65.6379 68.1392 64.9148 68.9938 64.1916C71.0317 62.4824 73.2011 60.4445 74.0557 57.8807C74.5159 56.4344 74.5816 54.8567 73.6612 53.6076C72.8066 52.4901 71.3604 51.8984 70.0456 51.6355C66.4957 50.9781 63.8004 53.016 61.7625 55.7113C59.2644 58.801 57.4894 62.6139 56.6348 66.4925C56.2753 67.982 56.0361 69.4716 55.7919 70.9925L55.7919 70.9928L55.7918 70.9935C55.7235 71.4188 55.6548 71.8466 55.583 72.2776C55.2543 74.2497 55.0571 76.0904 56.1089 77.9311C56.085 77.6923 56.0524 77.4621 56.0207 77.2374L56.0206 77.2373C55.965 76.8437 55.9117 76.4671 55.9117 76.0904C55.9117 75.9169 55.9483 75.7434 55.9829 75.5796C56.0138 75.433 56.0432 75.2942 56.0432 75.1701C56.0432 75.111 56.0166 74.9987 55.9873 74.8752C55.9515 74.7238 55.9117 74.5555 55.9117 74.4469C55.9117 73.9486 56.005 73.5435 56.113 73.0745L56.113 73.0745L56.133 72.9872L56.1545 72.8933L56.1746 72.8035C56.2075 72.5076 56.2075 72.2118 56.2075 71.916C56.2075 71.6202 56.2075 71.3243 56.2404 71.0285C56.2993 70.4391 56.5168 69.9553 56.7507 69.4352L56.7684 69.3957C56.7895 69.3487 56.8108 69.3013 56.832 69.2536C56.9306 68.9906 56.9964 68.7441 57.0621 68.4976C57.1278 68.251 57.1936 68.0045 57.2922 67.7416C57.4044 67.4796 57.4954 67.1964 57.5893 66.9041L57.5893 66.9039C57.6604 66.6826 57.7332 66.4561 57.8181 66.2296C57.8594 66.0231 58.0044 65.7908 58.1554 65.5488C58.2448 65.4055 58.3364 65.2587 58.4098 65.112C58.3175 65.3888 58.1821 65.6512 58.0506 65.9059C57.901 66.1957 57.7566 66.4756 57.6866 66.7555C57.5633 67.2488 57.5685 67.7678 57.5737 68.2803C57.5767 68.5874 57.5798 68.8922 57.5552 69.1878C57.4929 69.5922 57.4013 69.9966 57.3081 70.4079C57.2043 70.8659 57.0985 71.3325 57.0292 71.8174C56.9635 72.2447 56.832 72.6555 56.7005 73.0664C56.5691 73.4773 56.4376 73.8882 56.3719 74.3155C56.3295 74.5696 56.2735 74.8033 56.2192 75.0297L56.2192 75.0298C56.105 75.5061 55.9986 75.9502 56.0432 76.4849C56.0432 76.945 56.1089 77.4052 56.1746 77.7996C56.2328 78.2652 56.4971 78.5762 56.7849 78.915C56.8118 78.9467 56.8389 78.9785 56.866 79.0108L56.8978 79.0487C58.0153 80.3635 59.5273 81.4153 61.2365 81.8755C62.4199 82.2042 63.4717 82.1384 64.5892 81.5468C66.167 80.6922 67.5475 79.3774 68.7308 78.1283C69.4758 77.2957 70.104 76.4045 70.7321 75.5134C71.0463 75.0678 71.3604 74.6223 71.6891 74.184C72.1492 73.5924 72.6586 73.0172 73.1681 72.4421L73.1682 72.4419L73.1684 72.4417C73.6778 71.8665 74.1872 71.2914 74.6473 70.6998L75.7498 69.2707C75.7631 69.5458 75.7841 69.7615 75.8008 69.8452C75.9987 70.7357 76.5689 71.44 77.1472 72.1544C77.3373 72.3892 77.5283 72.6252 77.7073 72.8692C78.1017 73.4609 78.4961 74.0525 79.0878 74.4469C79.5329 74.7808 79.5594 74.7379 79.5925 74.6843C79.6181 74.643 79.6475 74.5953 79.8767 74.7099H79.7452C79.6794 75.1043 82.1775 75.7617 82.7034 75.696C84.6515 75.2507 86.1283 73.1562 87.3333 71.447L87.3337 71.4465C87.5518 71.1371 87.7611 70.8404 87.9626 70.5683C89.0907 69.1433 90.058 67.7183 91.0581 66.2449L91.0582 66.2447C91.1653 66.0869 91.2729 65.9284 91.381 65.7694L91.4838 65.6362C92.1536 64.77 93.2085 63.4058 92.9588 62.2195C92.8273 61.3649 91.9069 61.6278 91.4468 61.9565C90.8551 62.3509 87.5681 66.6897 87.8311 67.0184C88.0283 67.0184 88.1598 67.0184 88.2913 66.8869C87.5221 67.821 86.2018 68.8469 85.0597 69.7343C84.8353 69.9087 84.6178 70.0777 84.4127 70.2396C84.3426 70.297 84.2626 70.3642 84.1743 70.4384C83.3522 71.1295 81.8126 72.4238 80.8628 71.9489C79.1266 71.0808 81.4758 66.1273 82.5188 63.9281C82.8186 63.2961 83.0104 62.8915 82.9664 62.8769C82.7692 62.8111 81.1257 66.4925 80.797 67.3471C81.5859 65.0462 82.6377 62.7454 83.8868 60.7075C83.868 60.7638 83.8385 60.8309 83.8089 60.898C83.7352 61.0657 83.6614 61.2334 83.7553 61.2334C83.8868 61.2991 84.8728 59.9186 84.6756 59.7871C84.6099 59.7871 84.4784 59.7871 84.4127 59.8529C84.469 59.7965 84.5361 59.7509 84.6032 59.7053C84.7709 59.5912 84.9386 59.4772 84.9386 59.1955C84.9386 58.5381 83.4266 57.8807 82.9007 57.6835C81.6516 57.1576 80.4026 57.0261 79.4165 57.6835C78.3647 58.3146 77.986 59.4505 77.6073 60.5865C77.5127 60.8705 77.418 61.1545 77.3128 61.4306ZM64.2605 62.6796C64.2605 62.6796 64.2605 62.7454 64.1948 62.8769C64.0165 63.2335 63.8769 63.6095 63.734 63.9943L63.7339 63.9944C63.6134 64.3189 63.4906 64.6497 63.3402 64.9805C65.4438 63.8629 67.3503 62.3509 68.8623 60.576L69.9799 59.1297C70.0587 58.9982 70.1587 58.8878 70.2586 58.7774C70.4085 58.6117 70.5584 58.446 70.6372 58.2094C70.6696 58.0478 70.6542 57.9021 70.6381 57.7488C70.6214 57.5903 70.6038 57.4238 70.6372 57.2233L70.9002 55.8428C70.9659 55.1854 70.703 53.4762 69.7169 53.6734C69.2722 53.8004 68.8275 54.3572 68.5608 54.6912L68.5336 54.7252L67.3503 56.3029C66.3849 57.728 65.741 59.2495 65.1039 60.755L65.1038 60.7551C64.8298 61.4025 64.5571 62.047 64.2605 62.6796ZM81.4544 53.9363C81.4988 54.0029 81.5057 54.0769 81.5131 54.1559C81.5276 54.311 81.544 54.4853 81.8488 54.6595C82.1901 54.8057 82.4229 54.6989 82.6814 54.5803C82.7714 54.539 82.8645 54.4962 82.9664 54.4622C83.5115 54.2351 83.9625 53.7569 84.3843 53.3095C84.5729 53.1094 84.7558 52.9155 84.9386 52.753C85.1358 52.6216 84.7414 52.6873 84.7414 52.6873C85.1866 52.2763 85.2036 52.3292 85.2293 52.4092C85.2529 52.4827 85.2838 52.579 85.6617 52.3586C86.1225 52.0514 86.359 51.6321 86.607 51.1923C86.7836 50.8792 86.966 50.5557 87.2394 50.2549C86.4506 50.5836 85.8589 51.0438 85.333 51.7012C84.6756 52.5558 84.2154 52.9502 83.4923 53.4104C84.2812 52.8188 84.6756 52.2271 85.333 51.1753C85.5302 50.9781 85.7274 50.8466 85.9904 50.7151C85.7932 50.5179 85.7932 50.3207 86.0561 50.1235C86.1548 49.9591 86.3027 49.8441 86.4506 49.729C86.5985 49.614 86.7464 49.4989 86.845 49.3346C86.9977 49.1208 87.0653 48.8786 87.1334 48.6345C87.212 48.3531 87.2912 48.069 87.5024 47.8226C87.647 47.707 87.8169 47.604 87.9844 47.5026C88.1977 47.3735 88.4069 47.2468 88.5542 47.0995C89.1459 46.5736 89.8033 45.5875 89.5403 44.7329C89.2774 43.944 88.62 42.9579 87.8968 42.4977C87.0422 42.0376 85.8589 41.8403 84.9386 42.2348L84.9191 42.2411L84.8987 42.2475L84.8517 42.2619C84.5769 42.3458 83.9821 42.5274 84.2154 42.7607C84.2812 42.8922 84.3469 42.8922 84.4784 42.8922C83.8868 43.3523 82.9007 44.1412 84.2812 44.6671C84.1768 44.7715 84.2382 45.166 84.2679 45.357C84.2756 45.4066 84.2812 45.4424 84.2812 45.456C84.2154 45.9162 83.2951 48.3485 82.7034 49.5318L83.4923 48.3485C83.0321 49.3346 82.5062 50.2549 81.9146 51.0438C82.309 50.1892 81.5201 51.1753 81.5201 51.3725C80.797 51.0438 80.9942 53.0817 81.06 53.2789C81.06 53.3447 81.4544 53.9363 81.4544 53.9363ZM80.2054 69.5822V69.648L80.0739 70.0424L80.2054 69.5165C80.2344 69.4874 80.2506 69.4712 80.254 69.4735C80.2582 69.4765 80.242 69.5089 80.2054 69.5822ZM82.3747 50.0577C82.3747 50.0577 82.5062 49.9262 82.6377 49.6633L82.3747 50.0577ZM81.6516 51.4382C81.6516 51.4382 81.6516 51.3725 81.5859 51.3725C81.6138 51.3725 81.6299 51.3725 81.6442 51.3675C81.6635 51.3606 81.6796 51.3446 81.7174 51.3068C81.7174 51.3725 81.7174 51.3725 81.6516 51.4382ZM83.8508 89.7642V89.9614C83.9165 89.7971 83.9494 89.6985 83.9658 89.6492C83.975 89.6216 83.9791 89.6095 83.9809 89.6098C83.9816 89.6099 83.9819 89.6121 83.9821 89.6161C83.9823 89.6199 83.9823 89.6255 83.9823 89.6327L86.8748 81.8097C84.048 84.2421 81.6157 86.8716 79.2491 89.7642C79.037 90.0246 78.8195 90.289 78.5986 90.5573C76.4231 93.2006 73.9354 96.2232 73.3983 99.625C73.2011 100.94 73.464 103.241 75.0418 103.635C76.488 103.964 77.8028 101.992 78.4602 101.006C80.5638 97.7843 82.0758 94.2344 83.5221 90.6188C83.555 90.5859 83.6043 90.438 83.6618 90.2654L83.6618 90.2653C83.7193 90.0928 83.7851 89.8956 83.8508 89.7642ZM97.5903 54.6266C97.541 54.5609 97.4917 54.4951 97.4588 54.528C97.3103 54.561 97.1205 54.6602 96.9152 54.7675C96.3024 55.0877 95.5521 55.4799 95.3551 54.3965C95.2894 54.1336 95.3551 53.6734 95.6838 53.7391C95.6838 53.6076 96.407 52.4901 96.0125 53.4104C96.6042 52.4901 97.0644 51.504 97.5245 50.4522L96.9329 51.504C97.5245 49.992 98.2477 46.8365 98.2477 46.4421C98.3104 45.5634 98.2534 45.5236 97.676 45.1213L97.5903 45.0616C97.656 45.1273 97.7218 45.2588 97.656 45.3245C97.3273 45.7847 97.0644 44.6671 97.0644 44.4699C97.1301 44.0755 97.5903 43.8125 97.8532 43.681C98.1367 43.5109 98.5181 43.4386 98.8285 43.3798L98.8291 43.3797L98.8301 43.3795L98.9091 43.3644L98.9708 43.3523C100.286 43.0236 102.586 43.1551 103.507 44.1412C103.704 44.3384 103.835 44.6014 103.967 44.8643C104.23 45.5875 104.296 46.5078 103.967 47.1652C103.794 47.4829 103.608 47.6484 103.442 47.7953C103.232 47.9828 103.055 48.1403 102.981 48.5457H102.849C102.782 48.7038 102.722 48.955 102.653 49.2406C102.523 49.7865 102.363 50.4582 102.061 50.8466C101.722 51.3362 101.404 51.459 101.108 51.5735C100.891 51.6575 100.686 51.737 100.492 51.9539C100.562 51.9273 100.841 51.8684 100.68 52.0299C100.318 52.3559 99.9954 52.7419 99.669 53.1327L99.6688 53.1329C99.403 53.4512 99.1344 53.7727 98.8393 54.0678C98.3792 54.3965 98.1819 54.528 97.7218 54.7252C97.6889 54.7581 97.6396 54.6923 97.5903 54.6266ZM87.0001 87.0727C87.388 86.3921 87.7758 85.7115 87.8609 85.0309C87.741 85.1508 87.6484 85.2981 87.5583 85.4415C87.4507 85.6126 87.3466 85.7783 87.2035 85.8856C86.936 86.1085 86.7592 86.8454 86.6116 87.4607L86.6116 87.4609C86.5415 87.7528 86.4781 88.0172 86.4146 88.1864C86.577 87.8152 86.7886 87.444 87.0001 87.0727ZM86.7433 90.8817L86.9405 90.4873C87.072 90.1586 87.2035 89.7642 87.2692 89.3697C87.2035 89.4355 87.2035 89.5012 87.2035 89.5669L86.9405 90.3558V90.0271C86.8669 90.1744 86.7829 90.3217 86.6973 90.4719C86.4773 90.858 86.2463 91.2631 86.1517 91.7363C86.064 91.9555 86.0348 92.1746 86.0056 92.3938C85.991 92.5033 85.9764 92.6129 85.9545 92.7224L86.1517 92.1308L86.3489 91.6049L86.5461 91.2762L86.7433 90.816V90.8817ZM87.591 88.4942L87.5909 88.4946C87.5712 88.5681 87.5517 88.6409 87.5322 88.7123C87.5322 88.7123 87.4665 88.7781 87.4665 88.8438H87.5322V88.9096C87.7951 88.3179 88.0581 87.5948 88.2553 87.0031L88.4525 86.6087L88.3211 86.7402C87.9657 87.0955 87.7704 87.8245 87.591 88.4942ZM96.407 52.3586C96.5385 52.4243 96.6699 52.2271 96.8014 51.7669C96.6042 52.0956 96.407 52.3586 96.407 52.3586ZM87.7952 88.1207L87.9266 87.7262C87.8609 87.8577 87.7952 87.9892 87.7952 88.1207ZM87.9266 87.7262L87.9924 87.4633C87.9266 87.529 87.9266 87.5948 87.9266 87.7262ZM87.4007 88.9753H87.4665V88.9096L87.4007 88.9753ZM95.8153 53.8049V53.7391C95.8153 53.8049 95.7496 53.8049 95.7496 53.8049H95.8153ZM113.884 62.8769C113.95 62.7454 113.95 62.6796 113.95 62.6796C114.247 62.047 114.519 61.4025 114.793 60.7551L114.793 60.755C115.431 59.2495 116.074 57.728 117.04 56.3029L118.223 54.7252L118.25 54.6912C118.517 54.3572 118.962 53.8004 119.406 53.6734C120.393 53.4762 120.655 55.1854 120.59 55.8428L120.327 57.2233C120.293 57.4238 120.311 57.5903 120.328 57.7488C120.344 57.9021 120.359 58.0478 120.327 58.2094C120.248 58.446 120.098 58.6117 119.948 58.7774C119.848 58.8878 119.748 58.9982 119.669 59.1297L118.552 60.576C117.04 62.3509 115.133 63.8629 113.03 64.9805C113.18 64.6502 113.303 64.3199 113.423 63.9958L113.423 63.9952L113.423 63.9944L113.424 63.9943C113.566 63.6094 113.706 63.2335 113.884 62.8769ZM134.299 66.8869C133.708 68.0045 133.182 69.1221 132.722 70.3054C131.933 72.1461 131.144 74.0525 130.684 76.0247C131.09 74.514 131.703 73.0547 132.293 71.6468L132.297 71.638C132.373 71.4559 132.449 71.2747 132.524 71.0943L133.774 68.2017C133.88 68.0103 134.096 67.5438 134.351 66.9935L134.352 66.9929C134.886 65.842 135.589 64.325 135.811 64.1916C135.466 64.2905 134.86 65.6523 134.524 66.4063L134.524 66.4064L134.524 66.4066L134.524 66.4068C134.413 66.6555 134.332 66.838 134.299 66.8869ZM132.787 84.2421C132.064 83.9791 131.538 83.4532 131.144 82.9273V82.993C131.078 82.9273 131.012 82.8616 131.012 82.7958L131.078 82.8602C130.799 82.2471 130.52 81.6342 130.362 81.2217L130.224 80.4949V80.4292C130.158 80.2977 130.158 80.232 130.158 80.232C130.158 80.232 130.158 80.2977 130.224 80.3635V80.0348C130.158 79.1144 130.224 78.2598 130.355 77.4052V77.3395C130.355 77.3066 130.371 77.2737 130.388 77.2409C130.404 77.2084 130.42 77.176 130.421 77.1435C130.42 77.1756 130.404 77.1918 130.388 77.208C130.371 77.2244 130.355 77.2409 130.355 77.2737V77.3395C130.224 77.9311 130.158 78.457 130.158 79.1144C130.092 79.9033 130.158 80.8236 130.355 81.6125C130.421 81.8097 130.947 82.9273 131.341 83.4532C131.341 83.4284 131.341 83.4036 131.338 83.3824C131.724 83.7498 132.226 84.0551 132.787 84.2421ZM131.275 83.3217C131.296 83.3421 131.317 83.3623 131.338 83.3824C131.332 83.3472 131.316 83.3217 131.275 83.3217ZM130.362 81.2217L130.487 81.8755L130.289 81.0209C130.309 81.0806 130.334 81.148 130.362 81.2217ZM134.497 61.6278C133.905 61.5621 133.313 61.4963 132.985 61.2334C132.853 61.1676 132.722 60.8389 132.722 60.7075C132.787 60.8389 133.182 61.1676 133.182 61.1676C133.511 61.4306 133.971 61.5621 134.497 61.6278ZM138.507 69.2536L139.887 66.361V66.2953L138.507 69.2536ZM130.815 82.4659C130.814 82.4006 130.75 82.3356 130.75 82.3356C130.75 82.3685 130.766 82.3849 130.782 82.4014C130.799 82.4176 130.815 82.4338 130.815 82.4659ZM132.787 60.576C132.722 60.576 132.722 60.6417 132.722 60.6417L132.787 60.576ZM153.292 53.9363C153.337 54.0029 153.344 54.0769 153.351 54.1559C153.366 54.311 153.382 54.4853 153.687 54.6595C154.028 54.8057 154.261 54.6989 154.519 54.5803C154.609 54.539 154.702 54.4962 154.804 54.4622C155.349 54.2351 155.8 53.7569 156.222 53.3095C156.411 53.1094 156.594 52.9155 156.777 52.753C156.974 52.6216 156.579 52.6873 156.579 52.6873C157.025 52.2763 157.042 52.3292 157.067 52.4092C157.091 52.4827 157.122 52.579 157.5 52.3586C157.96 52.0514 158.197 51.6321 158.445 51.1923C158.622 50.8792 158.804 50.5557 159.077 50.2549C158.289 50.5836 157.697 51.0438 157.171 51.7012C156.514 52.5558 156.053 52.9502 155.33 53.4104C156.119 52.8188 156.514 52.2271 157.171 51.1753C157.368 50.9781 157.565 50.8466 157.828 50.7151C157.631 50.5179 157.631 50.3207 157.894 50.1235C157.993 49.9591 158.141 49.8441 158.289 49.729C158.436 49.614 158.584 49.4989 158.683 49.3346C158.836 49.1208 158.903 48.8786 158.971 48.6345C159.05 48.3531 159.129 48.069 159.34 47.8226C159.485 47.707 159.655 47.604 159.822 47.5026C160.036 47.3735 160.245 47.2468 160.392 47.0995C160.984 46.5736 161.641 45.5875 161.378 44.7329C161.115 43.944 160.458 42.9579 159.735 42.4977C158.88 42.0376 157.697 41.8403 156.777 42.2348C156.754 42.2422 156.725 42.2513 156.69 42.2619C156.415 42.3458 155.82 42.5274 156.053 42.7607C156.119 42.8922 156.185 42.8922 156.316 42.8922C155.725 43.3523 154.739 44.1412 156.119 44.6671C156.015 44.7715 156.076 45.166 156.106 45.357C156.114 45.4066 156.119 45.4424 156.119 45.456C156.053 45.9162 155.133 48.3485 154.541 49.5318L155.33 48.3485C154.87 49.3346 154.344 50.2549 153.753 51.0438C154.147 50.1892 153.358 51.1753 153.358 51.3725C152.635 51.0438 152.832 53.0817 152.898 53.2789C152.898 53.3447 153.292 53.9363 153.292 53.9363ZM152.043 69.5822V69.648L151.912 70.0424L152.043 69.5165C152.072 69.4874 152.089 69.4712 152.092 69.4735C152.096 69.4765 152.08 69.5089 152.043 69.5822ZM154.213 50.0577C154.213 50.0577 154.344 49.9262 154.476 49.6633L154.213 50.0577ZM153.49 51.4382C153.49 51.4382 153.49 51.3725 153.424 51.3725C153.452 51.3725 153.468 51.3725 153.482 51.3675C153.501 51.3606 153.517 51.3446 153.555 51.3069L153.555 51.3069L153.555 51.3068C153.555 51.3725 153.555 51.3725 153.49 51.4382ZM192.688 84.9652C192.688 84.8995 192.359 85.8198 192.425 85.6883C192.288 86.0881 192.151 86.4878 192.014 86.8873C190.777 90.4959 189.546 94.0886 187.889 97.5214C186.969 99.4278 182.63 107.317 181.052 101.531C180.082 98.1359 183.027 94.2929 185.089 91.6016C185.263 91.3751 185.43 91.1567 185.588 90.9475C188.086 87.7263 190.65 84.8337 193.608 82.0727C193.345 83.0588 193.017 84.0449 192.688 84.9652ZM192.425 89.5669C192.031 91.0132 191.571 92.4595 190.979 93.84C190.658 94.4454 190.28 95.0122 189.906 95.5718C189.59 96.0452 189.278 96.5134 189.007 96.9955C189.32 96.3176 189.637 95.6489 189.953 94.9834C190.832 93.1317 191.7 91.304 192.425 89.3697V89.5669ZM189.138 65.2435C188.87 65.7351 188.511 66.1964 188.143 66.6686C187.97 66.8909 187.795 67.1157 187.626 67.3471C188.152 66.1638 188.678 65.112 189.664 64.0602L189.664 64.06L189.664 64.0597C189.855 63.869 190.169 63.5555 190.367 63.2379L189.138 65.2435ZM189.072 66.9527L188.481 67.8073C188.875 67.0842 189.335 66.361 189.861 65.6379L189.072 66.9527Z" fill="black"/>
</svg>
